# Blender 4.4.1
# www.blender.org
mtllib box1.mtl
o Cube
v -0.823503 1.158541 0.673473
v 0.825126 1.158541 -0.673473
v 0.825126 1.158541 -0.621553
v -0.820000 0.330000 1.000000
v -0.820000 1.670000 1.000000
v 0.825126 1.044141 -0.527833
v 0.825126 1.158541 -0.433673
v -0.823503 1.158541 0.621553
v 0.825126 1.158541 -0.381313
v -0.820000 0.330000 -1.000000
v -0.823503 1.044141 0.527833
v 0.825126 1.013781 -0.501433
v -0.820000 1.670000 -1.000000
v 0.825126 0.858461 -0.372073
v 0.825126 0.858461 -0.424433
v -0.823503 1.158541 0.433673
v 0.820000 0.330000 1.000000
v 0.825126 0.982541 -0.527833
v 0.825126 0.858461 -0.629913
v -0.823503 1.158541 0.381313
v 0.820000 1.670000 1.000000
v 0.825126 0.858461 -0.681833
v 0.825126 1.013781 -0.553793
v -0.823503 1.013781 0.501433
v 0.820000 0.330000 -1.000000
v 0.825126 1.158541 -0.354473
v 0.825126 1.158541 -0.184193
v -0.823503 0.858461 0.372073
v 0.825126 0.858461 -0.184193
v -0.823503 0.858461 0.424433
v 0.820000 1.670000 -1.000000
v 0.825126 0.858461 -0.358433
v 0.000000 0.330000 -1.000000
v 0.825126 0.897181 -0.358433
v 0.825126 0.897181 -0.227313
v -0.823503 0.982541 0.527833
v 0.825126 0.990461 -0.227313
v -0.823503 0.858461 0.629913
v 0.825126 0.990461 -0.350073
v 0.000000 1.670000 -1.000000
v 0.825126 1.029181 -0.350073
v 0.000000 0.330000 1.000000
v -0.823503 0.858461 0.681833
v 0.825126 1.029181 -0.227313
v 0.825126 1.119821 -0.227313
v -0.823503 1.013781 0.553793
v 0.825126 1.119821 -0.354473
v 0.000000 1.670000 1.000000
v 0.825126 1.158541 -0.143713
v -0.823503 1.158541 0.354473
v -0.410000 0.330000 -1.000000
v 0.825126 1.158541 0.107087
v 0.825126 1.119821 0.107087
v -0.410000 1.670000 1.000000
v 0.825126 1.119821 0.003247
v -0.823503 1.158541 0.184193
v 0.825126 0.858461 0.003247
v -0.823503 0.858461 0.184193
v 0.825126 0.858461 -0.039873
v -0.410000 1.670000 -1.000000
v -0.823503 0.858461 0.358433
v 0.825126 1.119821 -0.039873
v 0.825126 1.119821 -0.143713
v -0.410000 0.330000 1.000000
v 0.410000 1.670000 -1.000000
v 0.825126 1.160301 0.248767
v -0.823503 0.897181 0.358433
v 0.825126 1.160301 0.279127
v 0.410000 0.330000 1.000000
v 0.825126 0.858461 0.408047
v -0.823503 0.897181 0.227313
v 0.825126 0.858461 0.364047
v 0.410000 0.330000 -1.000000
v 0.825126 0.946901 0.326207
v -0.823503 0.990461 0.227313
v 0.825126 0.946901 0.198607
v 0.825126 0.858461 0.158567
v -0.823503 0.990461 0.350073
v 0.410000 1.670000 1.000000
v 0.825126 0.858461 0.114567
v -0.823503 1.029181 0.350073
v 0.825126 1.094301 0.264607
v -0.205000 1.670000 -1.000000
v 0.825126 0.985621 0.216207
v -0.823503 1.029181 0.227313
v 0.825126 0.985621 0.309487
v -0.205000 0.330000 1.000000
v 0.825126 1.158541 0.639927
v -0.205000 0.330000 -1.000000
v 0.825126 0.858461 0.639927
v -0.823503 1.119821 0.227313
v 0.825126 0.858461 0.596807
v 0.825126 0.988701 0.596807
v -0.823503 1.119821 0.354473
v -0.205000 1.670000 1.000000
v 0.825126 0.988701 0.578767
v 0.208088 0.330000 -1.000000
v 0.825126 0.988527 0.573335
v -0.823503 1.158541 0.143713
v 0.825126 0.987895 0.567979
v 0.825126 0.986639 0.562611
v -0.823503 1.158541 -0.107087
v 0.825126 0.984595 0.557142
v 0.208088 1.670000 1.000000
v 0.208088 1.670000 -1.000000
v 0.825126 0.981597 0.551483
v 0.825126 0.977481 0.545547
v -0.823503 1.119821 -0.107087
v 0.825126 0.972082 0.539244
v -0.823503 1.119821 -0.003247
v 0.825126 0.965235 0.532486
v 0.208088 0.330000 1.000000
v 0.825126 0.956774 0.525183
v -0.823503 0.858461 -0.003247
v -0.820000 1.000000 1.000000
v 0.825126 0.946535 0.517249
v -0.823503 0.858461 0.039873
v 0.825126 0.934352 0.508593
v -0.820000 1.000000 -1.000000
v 0.825126 0.920061 0.499127
v -0.823503 1.119821 0.039873
v 0.825126 0.858461 0.459527
v 0.820000 1.000000 -1.000000
v 0.825126 0.865243 0.412953
v -0.823503 1.119821 0.143713
v 0.820000 1.000000 1.000000
v 0.825126 0.871356 0.417373
v -0.823503 1.160301 -0.248767
v 0.825126 0.876900 0.421371
v 0.000000 1.000000 1.000000
v 0.825126 0.881977 0.425011
v 0.825126 0.886687 0.428359
v 0.000000 1.000000 -1.000000
v -0.823503 1.160301 -0.279127
v 0.825126 0.891131 0.431477
v 0.825126 0.895411 0.434430
v -0.410000 1.000000 -1.000000
v -0.823503 0.858461 -0.408047
v 0.825126 0.899626 0.437283
v 0.825126 0.903877 0.440098
v -0.410000 1.000000 1.000000
v -0.823503 0.858461 -0.364047
v 0.825126 0.908267 0.442941
v -0.823503 0.946901 -0.326207
v 0.825126 0.912894 0.445876
v 0.825126 0.917861 0.448967
v 0.410000 1.000000 1.000000
v 0.825126 0.927010 0.454568
v 0.410000 1.000000 -1.000000
v -0.823503 0.946901 -0.198607
v 0.825126 0.935755 0.459971
v -0.205000 1.000000 1.000000
v 0.825126 0.944096 0.465233
v -0.823503 0.858461 -0.158567
v 0.825126 0.952035 0.470413
v -0.205000 1.000000 -1.000000
v 0.825126 0.959570 0.475568
v -0.823503 0.858461 -0.114567
v 0.825126 0.966701 0.480757
v 0.208088 1.000000 -1.000000
v 0.825126 0.973430 0.486038
v 0.825126 0.979755 0.491468
v -0.823503 1.094301 -0.264607
v 0.825126 0.985676 0.497106
v 0.208088 1.000000 1.000000
v -0.823503 0.985621 -0.216207
v 0.825126 0.991195 0.503010
v -0.820000 1.335000 1.000000
v 0.825126 0.996310 0.509237
v 0.825126 1.001021 0.515847
v -0.823503 0.985621 -0.309487
v 0.825126 1.004484 0.508113
v -0.823503 1.158541 -0.639927
v 0.825126 1.008481 0.500979
v -0.820000 1.335000 -1.000000
v 0.825126 1.012998 0.494459
v 0.820000 1.335000 -1.000000
v 0.825126 1.018018 0.488567
v -0.823503 0.858461 -0.639927
v -0.823503 0.858461 -0.596807
v 0.825126 1.023528 0.483317
v 0.820000 1.335000 1.000000
v 0.825126 1.029511 0.478722
v -0.823503 0.988701 -0.596807
v 0.825126 1.035953 0.474796
v 0.825126 1.042838 0.471554
v 0.000000 1.335000 1.000000
v 0.825126 1.050150 0.469008
v 0.000000 1.335000 -1.000000
v -0.823503 0.988701 -0.578767
v 0.825126 1.057875 0.467172
v -0.410000 1.335000 -1.000000
v 0.825126 1.065997 0.466061
v 0.825126 1.074501 0.465687
v -0.823503 0.988527 -0.573335
v -0.823503 0.987895 -0.567979
v 0.825126 1.087062 0.466467
v -0.410000 1.335000 1.000000
v 0.825126 1.098754 0.468771
v 0.410000 1.335000 1.000000
v 0.825126 1.109536 0.472548
v 0.825126 1.119365 0.477746
v -0.823503 0.986639 -0.562611
v 0.825126 1.128198 0.484313
v 0.410000 1.335000 -1.000000
v -0.823503 0.984595 -0.557142
v 0.825126 1.135991 0.492197
v -0.205000 1.335000 1.000000
v 0.825126 1.142703 0.501346
v 0.825126 1.148291 0.511708
v -0.823503 0.981597 -0.551483
v 0.825126 1.152711 0.523231
v -0.205000 1.335000 -1.000000
v -0.823503 0.977481 -0.545547
v 0.825126 1.155922 0.535863
v 0.208088 1.335000 -1.000000
v 0.825126 1.157879 0.549552
v -0.823503 0.972082 -0.539244
v 0.825126 1.158541 0.564247
v -0.823503 0.965235 -0.532486
v 0.825126 1.121581 0.596807
v 0.825126 1.121581 0.569087
v 0.208088 1.335000 1.000000
v -0.823503 0.956774 -0.525183
v 0.825126 1.121227 0.559154
v 0.825126 1.120180 0.550236
v -0.820000 1.502500 1.000000
v -0.820000 1.502500 -1.000000
v 0.825126 1.118460 0.542302
v -0.823503 0.946535 -0.517249
v 0.825126 1.116089 0.535321
v 0.820000 1.502500 -1.000000
v 0.825126 1.113089 0.529263
v -0.823503 0.934352 -0.508593
v 0.825126 1.109481 0.524097
v -0.823503 0.920061 -0.499127
v 0.825126 1.105286 0.519793
v 0.820000 1.502500 1.000000
v 0.825126 1.100526 0.516320
v 0.825126 1.095222 0.513647
v -0.823503 0.858461 -0.459527
v 0.000000 1.502500 1.000000
v 0.825126 1.089396 0.511744
v 0.000000 1.502500 -1.000000
v 0.825126 1.083068 0.510581
v 0.825126 1.076261 0.510127
v -0.823503 0.865243 -0.412953
v -0.410000 1.502500 -1.000000
v 0.825126 1.070032 0.510312
v -0.410000 1.502500 1.000000
v 0.825126 1.063935 0.511133
v -0.823503 0.871356 -0.417373
v 0.825126 1.058049 0.512657
v 0.410000 1.502500 1.000000
v 0.825126 1.052452 0.514951
v 0.825126 1.047222 0.518082
v -0.823503 0.876900 -0.421371
v 0.410000 1.502500 -1.000000
v 0.825126 1.042436 0.522117
v -0.823503 0.881977 -0.425011
v 0.825126 1.038173 0.527124
v -0.205000 1.502500 1.000000
v 0.825126 1.034510 0.533170
v -0.823503 0.886687 -0.428359
v 0.825126 1.031526 0.540322
v -0.205000 1.502500 -1.000000
v 0.825126 1.029297 0.548647
v 0.825126 1.027903 0.558213
v -0.823503 0.891131 -0.431477
v 0.208088 1.502500 -1.000000
v 0.825126 1.027421 0.569087
v -0.823503 0.895411 -0.434430
v 0.825126 1.027421 0.596807
v -0.823503 0.899626 -0.437283
v 0.208088 1.502500 1.000000
v -0.820000 1.167500 -1.000000
v -0.823503 0.903877 -0.440098
v 0.820000 1.167500 -1.000000
v -0.823503 0.908267 -0.442941
v 0.820000 1.167500 1.000000
v -0.823503 0.912894 -0.445876
v 0.000000 1.167500 1.000000
v -0.823503 0.917861 -0.448967
v 0.000000 1.167500 -1.000000
v -0.823503 0.927010 -0.454568
v -0.823503 0.935755 -0.459971
v -0.410000 1.167500 -1.000000
v -0.823503 0.944096 -0.465233
v -0.410000 1.167500 1.000000
v -0.823503 0.952035 -0.470413
v 0.410000 1.167500 1.000000
v 0.410000 1.167500 -1.000000
v -0.823503 0.959570 -0.475568
v -0.823503 0.966701 -0.480757
v -0.205000 1.167500 1.000000
v -0.823503 0.973430 -0.486038
v -0.205000 1.167500 -1.000000
v -0.823503 0.979755 -0.491468
v 0.208088 1.167500 -1.000000
v 0.208088 1.167500 1.000000
v -0.823503 0.985676 -0.497106
v -0.820000 1.167500 1.000000
v -0.823503 0.991195 -0.503010
v -0.820000 1.251250 1.000000
v -0.823503 0.996310 -0.509237
v -0.823503 1.001021 -0.515847
v -0.820000 1.251250 -1.000000
v -0.823503 1.004484 -0.508113
v 0.820000 1.251250 -1.000000
v -0.823503 1.008481 -0.500979
v 0.820000 1.251250 1.000000
v -0.823503 1.012998 -0.494459
v 0.000000 1.251250 1.000000
v 0.000000 1.251250 -1.000000
v -0.823503 1.018018 -0.488567
v -0.823503 1.023528 -0.483317
v -0.410000 1.251250 -1.000000
v -0.823503 1.029511 -0.478722
v -0.410000 1.251250 1.000000
v -0.823503 1.035953 -0.474796
v 0.410000 1.251250 1.000000
v -0.823503 1.042838 -0.471554
v 0.410000 1.251250 -1.000000
v -0.823503 1.050150 -0.469008
v -0.205000 1.251250 1.000000
v -0.823503 1.057875 -0.467172
v -0.205000 1.251250 -1.000000
v 0.208088 1.251250 -1.000000
v -0.823503 1.065997 -0.466061
v 0.208088 1.251250 1.000000
v -0.823503 1.074501 -0.465687
v -0.823503 1.087062 -0.466467
v 0.104044 0.330000 -1.000000
v 0.104044 1.670000 1.000000
v -0.823503 1.098754 -0.468771
v -0.823503 1.109536 -0.472548
v 0.104044 1.670000 -1.000000
v 0.104044 0.330000 1.000000
v -0.823503 1.119365 -0.477746
v 0.104044 1.000000 -1.000000
v -0.823503 1.128198 -0.484313
v 0.104044 1.000000 1.000000
v -0.823503 1.135991 -0.492197
v 0.104044 1.335000 -1.000000
v -0.823503 1.142703 -0.501346
v 0.104044 1.335000 1.000000
v -0.823503 1.148291 -0.511708
v -0.823503 1.152711 -0.523231
v 0.104044 1.502500 -1.000000
v 0.104044 1.502500 1.000000
v -0.823503 1.155922 -0.535863
v -0.823503 1.157879 -0.549552
v 0.104044 1.167500 1.000000
v -0.823503 1.158541 -0.564247
v 0.104044 1.167500 -1.000000
v 0.104044 1.251250 1.000000
v -0.823503 1.121581 -0.596807
v -0.823503 1.121581 -0.569087
v 0.104044 1.251250 -1.000000
v -0.823503 1.121227 -0.559154
v -0.102500 1.670000 -1.000000
v -0.102500 0.330000 1.000000
v -0.823503 1.120180 -0.550236
v -0.102500 0.330000 -1.000000
v -0.823503 1.118460 -0.542302
v -0.823503 1.116089 -0.535321
v -0.102500 1.670000 1.000000
v -0.823503 1.113089 -0.529263
v -0.102500 1.000000 1.000000
v -0.823503 1.109481 -0.524097
v -0.102500 1.000000 -1.000000
v -0.102500 1.335000 1.000000
v -0.823503 1.105286 -0.519793
v -0.102500 1.335000 -1.000000
v -0.823503 1.100526 -0.516320
v -0.823503 1.095222 -0.513647
v -0.102500 1.502500 1.000000
v -0.823503 1.089396 -0.511744
v -0.102500 1.502500 -1.000000
v -0.102500 1.167500 -1.000000
v -0.823503 1.083068 -0.510581
v -0.102500 1.167500 1.000000
v -0.823503 1.076261 -0.510127
v -0.102500 1.251250 -1.000000
v -0.823503 1.070032 -0.510312
v -0.102500 1.251250 1.000000
v -0.823503 1.063935 -0.511133
v -0.823503 1.058049 -0.512657
v 0.156066 1.670000 -1.000000
v 0.156066 0.330000 1.000000
v -0.823503 1.052452 -0.514951
v -0.823503 1.047222 -0.518082
v 0.156066 1.000000 -1.000000
v 0.156066 1.335000 -1.000000
v -0.823503 1.042436 -0.522117
v -0.823503 1.038173 -0.527124
v 0.156066 1.502500 -1.000000
v -0.823503 1.034510 -0.533170
v 0.156066 1.251753 -1.000000
v 0.156066 1.251250 -1.000000
v -0.823503 1.031526 -0.540322
v 0.156066 0.330000 -1.000000
v -0.823503 1.029297 -0.548647
v 0.156066 1.670000 1.000000
v -0.823503 1.027903 -0.558213
v -0.823503 1.027421 -0.569087
v 0.156066 1.000000 1.000000
v -0.823503 1.027421 -0.596807
v 0.156066 1.335000 1.000000
v 0.156066 1.502500 1.000000
v 0.156066 1.251753 1.000000
v 0.156066 1.251250 1.000000
v 0.052022 0.330000 -1.000000
v 0.052022 1.670000 1.000000
v 0.052022 1.000000 1.000000
v 0.052022 1.335000 1.000000
v 0.052022 1.502500 1.000000
v 0.052022 1.251753 1.000000
v 0.052022 1.251250 1.000000
v 0.052022 1.670000 -1.000000
v 0.052022 0.330000 1.000000
v 0.052022 1.000000 -1.000000
v 0.052022 1.335000 -1.000000
v 0.052022 1.502500 -1.000000
v 0.052022 1.251753 -1.000000
v 0.052022 1.251250 -1.000000
v -0.051250 1.670000 -1.000000
v -0.051250 0.330000 1.000000
v -0.051250 1.000000 -1.000000
v -0.051250 1.335000 -1.000000
v -0.051250 1.502500 -1.000000
v -0.051250 1.251753 -1.000000
v -0.051250 1.251250 -1.000000
v -0.051250 0.330000 -1.000000
v -0.051250 1.670000 1.000000
v -0.051250 1.000000 1.000000
v -0.051250 1.335000 1.000000
v -0.051250 1.502500 1.000000
v -0.051250 1.251753 1.000000
v -0.051250 1.251250 1.000000
v -0.153750 0.330000 -1.000000
v -0.153750 1.670000 1.000000
v -0.153750 1.000000 1.000000
v -0.153750 1.335000 1.000000
v -0.153750 1.502500 1.000000
v -0.153750 1.251753 1.000000
v -0.153750 1.251250 1.000000
v -0.153750 1.670000 -1.000000
v -0.153750 0.330000 1.000000
v -0.153750 1.000000 -1.000000
v -0.153750 1.335000 -1.000000
v -0.153750 1.502500 -1.000000
v -0.153750 1.251753 -1.000000
v -0.153750 1.251250 -1.000000
v -0.820000 0.858461 0.681833
v -0.820000 0.858461 0.629913
v -0.820000 1.000000 0.565154
v -0.820000 1.000000 0.489955
v -0.820000 0.982541 0.527833
v -0.820000 0.858461 0.372073
v -0.820000 0.858461 0.358433
v -0.820000 0.897181 0.358433
v -0.820000 0.858461 0.424433
v -0.820000 0.897181 0.227313
v -0.820000 0.990461 0.350073
v -0.820000 1.000000 0.350073
v -0.820000 0.858461 0.039873
v -0.820000 0.858461 -0.003247
v -0.820000 0.858461 0.184193
v -0.820000 1.000000 0.039873
v -0.820000 1.000000 0.184193
v -0.820000 0.990461 0.227313
v -0.820000 0.858461 -0.114567
v -0.820000 0.946901 -0.198607
v -0.820000 1.000000 -0.177496
v -0.820000 0.858461 -0.158567
v -0.820000 1.000000 -0.222610
v -0.820000 0.985621 -0.216207
v -0.820000 1.000000 -0.303549
v -0.820000 0.946901 -0.326207
v -0.820000 0.985621 -0.309487
v -0.820000 1.000000 -0.347594
v -0.820000 0.858461 -0.364047
v -0.820000 0.944096 -0.465233
v -0.820000 0.858461 -0.408047
v -0.820000 1.000000 -0.003247
v -0.820000 0.899626 -0.437283
v -0.820000 0.858461 -0.459527
v -0.820000 0.903877 -0.440098
v -0.820000 0.908267 -0.442941
v -0.820000 0.912894 -0.445876
v -0.820000 0.917861 -0.448967
v -0.820000 0.927010 -0.454568
v -0.820000 0.920061 -0.499127
v -0.820000 0.935755 -0.459971
v -0.820000 0.977481 -0.545547
v -0.820000 0.972082 -0.539244
v -0.820000 0.996310 -0.509237
v -0.820000 1.000000 -0.514414
v -0.820000 0.984595 -0.557142
v -0.820000 0.987895 -0.567979
v -0.820000 0.986639 -0.562611
v -0.820000 1.000000 -0.639927
v -0.820000 0.988701 -0.596807
v -0.820000 0.988701 -0.578767
v -0.820000 0.988527 -0.573335
v -0.820000 0.934352 -0.508593
v -0.820000 0.946535 -0.517249
v -0.820000 0.956774 -0.525183
v -0.820000 0.965235 -0.532486
v -0.820000 0.981597 -0.551483
v -0.820000 0.952035 -0.470413
v -0.820000 0.959570 -0.475568
v -0.820000 0.966701 -0.480757
v -0.820000 0.973430 -0.486038
v -0.820000 0.979755 -0.491468
v -0.820000 0.985676 -0.497106
v -0.820000 0.991195 -0.503010
v -0.820000 0.865243 -0.412953
v -0.820000 0.871356 -0.417373
v -0.820000 0.876900 -0.421371
v -0.820000 0.881977 -0.425011
v -0.820000 0.886687 -0.428359
v -0.820000 0.891131 -0.431477
v -0.820000 0.895411 -0.434430
v -0.820000 0.858461 -0.596807
v -0.820000 0.858461 -0.639927
v -0.820000 1.158541 0.673473
v -0.820000 1.158541 0.621553
v -0.820000 1.158541 0.433673
v -0.820000 1.119821 0.354473
v -0.820000 1.158541 0.381313
v -0.820000 1.044141 0.527833
v -0.820000 1.119821 0.227313
v -0.820000 1.158541 0.184193
v -0.820000 1.158541 0.143713
v -0.820000 1.119821 0.039873
v -0.820000 1.119821 0.143713
v -0.820000 1.158541 0.354473
v -0.820000 1.119821 -0.003247
v -0.820000 1.160301 -0.248767
v -0.820000 1.158541 -0.107087
v -0.820000 1.119821 -0.107087
v -0.820000 1.160301 -0.279127
v -0.820000 1.128198 -0.484313
v -0.820000 1.135991 -0.492197
v -0.820000 1.142703 -0.501346
v -0.820000 1.152711 -0.523231
v -0.820000 1.148291 -0.511708
v -0.820000 1.157879 -0.549552
v -0.820000 1.158541 -0.639927
v -0.820000 1.158541 -0.564247
v -0.820000 1.155922 -0.535863
v -0.820000 1.013781 0.501433
v -0.820000 1.013781 0.553793
v -0.820000 1.029181 0.350073
v -0.820000 1.029181 0.227313
v -0.820000 1.094301 -0.264607
v -0.820000 1.074501 -0.465687
v -0.820000 1.075775 -0.465766
v -0.820000 1.008481 -0.500979
v -0.820000 1.012998 -0.494459
v -0.820000 1.018018 -0.488567
v -0.820000 1.023528 -0.483317
v -0.820000 1.029511 -0.478722
v -0.820000 1.035953 -0.474796
v -0.820000 1.042838 -0.471554
v -0.820000 1.050150 -0.469008
v -0.820000 1.057875 -0.467172
v -0.820000 1.065997 -0.466061
v -0.820000 1.087062 -0.466467
v -0.820000 1.098754 -0.468771
v -0.820000 1.109536 -0.472548
v -0.820000 1.119365 -0.477746
v -0.820000 1.058049 -0.512657
v -0.820000 1.089396 -0.511744
v -0.820000 1.063935 -0.511133
v -0.820000 1.047222 -0.518082
v -0.820000 1.038173 -0.527124
v -0.820000 1.105286 -0.519793
v -0.820000 1.042436 -0.522117
v -0.820000 1.100526 -0.516320
v -0.820000 1.001021 -0.515847
v -0.820000 1.052452 -0.514951
v -0.820000 1.095222 -0.513647
v -0.820000 1.113089 -0.529263
v -0.820000 1.029297 -0.548647
v -0.820000 1.118460 -0.542302
v -0.820000 1.031526 -0.540322
v -0.820000 1.116089 -0.535321
v -0.820000 1.121227 -0.559154
v -0.820000 1.027421 -0.596807
v -0.820000 1.128103 -0.639927
v -0.820000 1.121581 -0.596807
v -0.820000 1.027421 -0.569087
v -0.820000 1.121581 -0.569087
v -0.820000 1.027903 -0.558213
v -0.820000 1.120180 -0.550236
v -0.820000 1.034510 -0.533170
v -0.820000 1.070032 -0.510312
v -0.820000 1.076261 -0.510127
v -0.820000 1.083068 -0.510581
v -0.820000 1.109481 -0.524097
v -0.820000 1.004484 -0.508113
v 0.820000 1.000000 0.639927
v 0.820000 0.988701 0.596807
v 0.820000 0.988701 0.578767
v 0.820000 0.988527 0.573335
v 0.820000 0.984595 0.557142
v 0.820000 0.986639 0.562611
v 0.820000 0.987895 0.567979
v 0.820000 0.977481 0.545547
v 0.820000 0.996310 0.509237
v 0.820000 1.000000 0.514414
v 0.820000 0.981597 0.551483
v 0.820000 0.934352 0.508593
v 0.820000 0.946535 0.517249
v 0.820000 0.956774 0.525183
v 0.820000 0.965235 0.532486
v 0.820000 0.972082 0.539244
v 0.820000 0.899626 0.437283
v 0.820000 0.903877 0.440098
v 0.820000 0.908267 0.442941
v 0.820000 0.912894 0.445876
v 0.820000 0.917861 0.448967
v 0.820000 0.927010 0.454568
v 0.820000 0.920061 0.499127
v 0.820000 0.935755 0.459971
v 0.820000 0.858461 0.459527
v 0.820000 0.944096 0.465233
v 0.820000 0.952035 0.470413
v 0.820000 0.959570 0.475568
v 0.820000 0.966701 0.480757
v 0.820000 0.973430 0.486038
v 0.820000 0.979755 0.491468
v 0.820000 0.985676 0.497106
v 0.820000 0.991195 0.503010
v 0.820000 0.858461 0.408047
v 0.820000 0.985621 0.309487
v 0.820000 1.000000 0.303549
v 0.820000 0.946901 0.326207
v 0.820000 1.000000 0.347594
v 0.820000 0.858461 0.114567
v 0.820000 0.858461 0.158567
v 0.820000 0.946901 0.198607
v 0.820000 1.000000 0.177496
v 0.820000 0.985621 0.216207
v 0.820000 1.000000 0.222610
v 0.820000 0.858461 0.364047
v 0.820000 1.000000 -0.039873
v 0.820000 1.000000 -0.184193
v 0.820000 0.858461 -0.184193
v 0.820000 0.858461 -0.039873
v 0.820000 0.858461 0.003247
v 0.820000 1.000000 0.003247
v 0.820000 0.990461 -0.350073
v 0.820000 1.000000 -0.350073
v 0.820000 0.897181 -0.227313
v 0.820000 0.990461 -0.227313
v 0.820000 0.858461 -0.358433
v 0.820000 0.858461 -0.372073
v 0.820000 0.858461 -0.424433
v 0.820000 0.982541 -0.527833
v 0.820000 1.000000 -0.565154
v 0.820000 0.858461 -0.681833
v 0.820000 0.858461 -0.629913
v 0.820000 1.000000 -0.489955
v 0.820000 0.897181 -0.358433
v 0.820000 0.865243 0.412953
v 0.820000 0.871356 0.417373
v 0.820000 0.876900 0.421371
v 0.820000 0.881977 0.425011
v 0.820000 0.886687 0.428359
v 0.820000 0.891131 0.431477
v 0.820000 0.895411 0.434430
v 0.820000 0.858461 0.639927
v 0.820000 0.858461 0.596807
v 0.820000 1.158541 0.639927
v 0.820000 1.158541 0.564247
v 0.820000 1.155922 0.535863
v 0.820000 1.148291 0.511708
v 0.820000 1.152711 0.523231
v 0.820000 1.157879 0.549552
v 0.820000 1.135991 0.492197
v 0.820000 1.160301 0.279127
v 0.820000 1.128198 0.484313
v 0.820000 1.119821 0.107087
v 0.820000 1.160301 0.248767
v 0.820000 1.119821 0.003247
v 0.820000 1.158541 0.107087
v 0.820000 1.142703 0.501346
v 0.820000 1.119821 -0.039873
v 0.820000 1.119821 -0.143713
v 0.820000 1.158541 -0.143713
v 0.820000 1.119821 -0.227313
v 0.820000 1.158541 -0.184193
v 0.820000 1.119821 -0.354473
v 0.820000 1.158541 -0.381313
v 0.820000 1.044141 -0.527833
v 0.820000 1.158541 -0.433673
v 0.820000 1.158541 -0.673473
v 0.820000 1.158541 -0.621553
v 0.820000 1.158541 -0.354473
v 0.820000 1.027421 0.596807
v 0.820000 1.027421 0.569087
v 0.820000 1.121581 0.569087
v 0.820000 1.121581 0.596807
v 0.820000 1.121227 0.559154
v 0.820000 1.029297 0.548647
v 0.820000 1.120180 0.550236
v 0.820000 1.113089 0.529263
v 0.820000 1.116089 0.535321
v 0.820000 1.031526 0.540322
v 0.820000 1.118460 0.542302
v 0.820000 1.027903 0.558213
v 0.820000 1.038173 0.527124
v 0.820000 1.047222 0.518082
v 0.820000 1.100526 0.516320
v 0.820000 1.042436 0.522117
v 0.820000 1.105286 0.519793
v 0.820000 1.089396 0.511744
v 0.820000 1.058049 0.512657
v 0.820000 1.001021 0.515847
v 0.820000 1.052452 0.514951
v 0.820000 1.095222 0.513647
v 0.820000 1.034510 0.533170
v 0.820000 1.063935 0.511133
v 0.820000 1.070032 0.510312
v 0.820000 1.076261 0.510127
v 0.820000 1.083068 0.510581
v 0.820000 1.109481 0.524097
v 0.820000 1.094301 0.264607
v 0.820000 1.076822 0.465831
v 0.820000 1.074501 0.465687
v 0.820000 1.029181 -0.227313
v 0.820000 1.013781 -0.501433
v 0.820000 1.013781 -0.553793
v 0.820000 1.029181 -0.350073
v 0.820000 1.008481 0.500979
v 0.820000 1.012998 0.494459
v 0.820000 1.018018 0.488567
v 0.820000 1.023528 0.483317
v 0.820000 1.029511 0.478722
v 0.820000 1.035953 0.474796
v 0.820000 1.042838 0.471554
v 0.820000 1.050150 0.469008
v 0.820000 1.057875 0.467172
v 0.820000 1.065997 0.466061
v 0.820000 1.067568 0.465992
v 0.820000 1.087062 0.466467
v 0.820000 1.098754 0.468771
v 0.820000 1.109536 0.472548
v 0.820000 1.119365 0.477746
v 0.820000 1.004484 0.508113
v -0.025625 1.502500 -1.000000
v -0.025625 1.670000 -1.000000
v -0.025625 1.251250 -1.000000
v -0.025625 1.335000 -1.000000
v -0.025625 1.502500 1.000000
v -0.025625 1.670000 1.000000
v -0.025625 1.251250 1.000000
v -0.025625 1.335000 1.000000
v 0.026011 1.670000 -1.000000
v 0.026011 1.670000 1.000000
v 0.026011 1.502500 1.000000
v 0.026011 1.251250 1.000000
v 0.026011 1.335000 1.000000
v 0.026011 1.502500 -1.000000
v 0.026011 1.251250 -1.000000
v 0.026011 1.335000 -1.000000
v -0.025625 1.209375 -1.000000
v -0.051250 1.251502 1.000000
v -0.012812 1.502500 -1.000000
v -0.012812 1.670000 -1.000000
v -0.012812 1.251250 -1.000000
v -0.012812 1.335000 -1.000000
v -0.012812 1.502500 1.000000
v -0.012812 1.670000 1.000000
v -0.012812 1.251250 1.000000
v -0.012812 1.335000 1.000000
v 0.026011 1.209375 1.000000
v 0.052022 1.251502 -1.000000
v 0.013006 1.670000 -1.000000
v 0.013006 1.670000 1.000000
v 0.013006 1.502500 1.000000
v 0.013006 1.251250 1.000000
v 0.013006 1.335000 1.000000
v 0.013006 1.502500 -1.000000
v 0.013006 1.251250 -1.000000
v 0.013006 1.335000 -1.000000
v 0.052022 1.251502 1.000000
v 0.078033 1.209375 -1.000000
v 0.013006 1.188437 1.000000
v 0.052022 1.251627 -1.000000
v 0.006503 1.670000 -1.000000
v 0.006503 1.670000 1.000000
v 0.006503 1.502500 1.000000
v 0.006503 1.251250 1.000000
v 0.006503 1.335000 1.000000
v 0.006503 1.502500 -1.000000
v 0.006503 1.251250 -1.000000
v 0.006503 1.335000 -1.000000
v -0.051250 1.251502 -1.000000
v -0.076875 1.209375 1.000000
v -0.012812 1.188437 -1.000000
v -0.051250 1.251627 1.000000
v -0.006406 1.502500 -1.000000
v -0.006406 1.670000 -1.000000
v -0.006406 1.251250 -1.000000
v -0.006406 1.335000 -1.000000
v -0.006406 1.502500 1.000000
v -0.006406 1.670000 1.000000
v -0.006406 1.251250 1.000000
v -0.006406 1.335000 1.000000
vn -1.0000 -0.0000 -0.0000
vn -0.0000 -0.0000 -1.0000
vn 1.0000 -0.0000 -0.0000
vn -0.0000 -0.0000 1.0000
vn -0.0000 -1.0000 -0.0000
vn -0.0000 1.0000 -0.0000
vn -0.0000 0.0003 -1.0000
vn -0.0000 -0.0003 1.0000
vn -0.0000 0.0006 1.0000
vn -0.0000 -0.0003 -1.0000
vn -0.0000 0.9367 0.3501
vn -0.0000 -0.6446 0.7645
vn -0.0000 -0.5793 -0.8151
vn -0.0000 0.9994 0.0356
vn -0.0000 0.6386 0.7696
vn -0.0000 -0.6896 -0.7242
vn -0.0000 0.4261 -0.9047
vn -0.0000 -0.5828 -0.8126
vn -0.0000 0.9932 0.1167
vn -0.0000 0.8837 0.4681
vn -0.0000 -0.7614 0.6483
vn -0.0000 -0.5849 -0.8111
vn -0.0000 0.9773 0.2118
vn -0.0000 0.8218 0.5698
vn -0.0000 -0.3928 0.9196
vn -0.0000 -0.8553 0.5182
vn -0.0000 -0.6355 -0.7721
vn -0.0000 -0.5859 -0.8104
vn -0.0000 -0.6337 0.7736
vn -0.0000 -0.4675 -0.8840
vn -0.0000 -0.6514 -0.7587
vn -0.0000 0.5204 -0.8539
vn -0.0000 -0.5861 -0.8102
vn -0.0000 0.9469 0.3216
vn -0.0000 0.7595 0.6505
vn -0.0000 -0.9229 0.3851
vn -0.0000 0.6372 -0.7707
vn -0.0000 0.8961 0.4438
vn -0.0000 -0.4063 -0.9138
vn -0.0000 -0.9660 0.2585
vn -0.0000 -0.6174 -0.7867
vn -0.0000 -0.6400 0.7684
vn -0.0000 0.8198 0.5726
vn -0.0000 0.7025 0.7117
vn -0.0000 0.3817 -0.9243
vn -0.0000 0.4068 0.9135
vn -0.0000 0.6091 -0.7931
vn -0.0000 -0.9895 0.1442
vn -0.0000 -0.3306 -0.9438
vn -0.0000 -0.5883 -0.8086
vn -0.0000 0.7162 0.6979
vn -0.0000 0.6534 0.7570
vn -0.0000 -0.9990 0.0443
vn -0.0000 -0.6361 -0.7716
vn -0.0000 0.5894 0.8078
vn -0.0000 0.6402 -0.7682
vn -0.0000 -0.5647 -0.8253
vn -0.0000 0.6353 0.7722
vn -0.0000 0.4500 0.8930
vn -0.0000 0.6125 0.7904
vn -0.0000 -0.1934 -0.9811
vn -0.0000 -0.5465 -0.8375
vn -0.0000 0.3934 -0.9194
vn -0.0000 0.3104 0.9506
vn -0.0000 0.5792 0.8152
vn -0.0000 0.4124 0.9110
vn -0.0000 0.6899 -0.7240
vn -0.0000 0.1808 0.9835
vn -0.0000 0.7611 -0.6486
vn -0.0000 -0.5335 -0.8458
vn -0.0000 0.8220 -0.5695
vn -0.0000 -0.0620 -0.9981
vn -0.0000 -0.5256 -0.8507
vn -0.0000 0.0666 0.9978
vn -0.0000 0.5522 0.8337
vn -0.0000 0.8724 -0.4888
vn -0.0000 -0.0297 0.9996
vn -0.0000 -0.9990 -0.0450
vn -0.0000 0.9127 -0.4086
vn -0.0000 -0.5222 -0.8528
vn -0.0000 0.5408 0.8412
vn -0.0000 -0.9899 -0.1416
vn -0.0000 -0.8143 -0.5805
vn -0.0000 0.0439 -0.9990
vn -0.0000 -0.1335 0.9911
vn -0.0000 -0.9692 -0.2463
vn -0.0000 -0.7728 -0.6347
vn -0.0000 -0.5283 -0.8490
vn -0.0000 -0.9337 -0.3582
vn -0.0000 0.1356 -0.9908
vn -0.0000 -0.5356 -0.8445
vn -0.0000 0.9995 0.0320
vn -0.0000 -0.2506 0.9681
vn -0.0000 -0.8802 -0.4746
vn -0.0000 -0.5437 -0.8393
vn -0.0000 -0.3792 0.9253
vn -0.0000 -0.8063 -0.5915
vn -0.0000 -0.7306 -0.6829
vn -0.0000 -0.5521 -0.8338
vn -0.0000 -0.7112 -0.7030
vn -0.0000 0.2312 -0.9729
vn -0.0000 -0.5604 -0.8282
vn -0.0000 0.9931 0.1173
vn -0.0000 -0.5136 0.8580
vn -0.0000 -0.5680 -0.8230
vn -0.0000 0.9737 0.2278
vn -0.0000 -0.5966 -0.8025
vn -0.0000 0.3288 -0.9444
vn -0.0000 -0.5743 -0.8186
vn -0.0000 -0.6174 0.7867
vn -0.0000 -0.6400 -0.7684
vn -0.0000 0.8198 -0.5726
vn -0.0000 0.7025 -0.7117
vn -0.0000 0.3817 0.9243
vn -0.0000 0.4068 -0.9135
vn -0.0000 0.6091 0.7931
vn -0.0000 -0.9895 -0.1442
vn -0.0000 -0.3306 0.9438
vn -0.0000 -0.5883 0.8086
vn -0.0000 0.7161 -0.6979
vn -0.0000 0.6534 -0.7570
vn -0.0000 -0.9990 -0.0443
vn -0.0000 -0.6361 0.7716
vn -0.0000 0.5894 -0.8078
vn -0.0000 0.6402 0.7682
vn -0.0000 -0.5647 0.8253
vn -0.0000 0.6353 -0.7722
vn -0.0000 0.4500 -0.8930
vn -0.0000 0.6125 -0.7904
vn -0.0000 -0.1934 0.9811
vn -0.0000 -0.5465 0.8375
vn -0.0000 0.3934 0.9194
vn -0.0000 0.3104 -0.9506
vn -0.0000 0.5792 -0.8152
vn -0.0000 0.4124 -0.9110
vn -0.0000 0.6899 0.7239
vn -0.0000 0.1808 -0.9835
vn -0.0000 0.7611 0.6486
vn -0.0000 -0.5335 0.8458
vn -0.0000 0.8220 0.5695
vn -0.0000 -0.0620 0.9981
vn -0.0000 -0.5256 0.8507
vn -0.0000 0.0666 -0.9978
vn -0.0000 0.5522 -0.8337
vn -0.0000 0.8724 0.4888
vn -0.0000 -0.0297 -0.9996
vn -0.0000 -0.9990 0.0450
vn -0.0000 0.9127 0.4086
vn -0.0000 -0.5222 0.8528
vn -0.0000 0.5408 -0.8412
vn -0.0000 -0.9899 0.1416
vn -0.0000 -0.8143 0.5805
vn -0.0000 0.0439 0.9990
vn -0.0000 -0.1334 -0.9911
vn -0.0000 -0.9692 0.2463
vn -0.0000 -0.7728 0.6347
vn -0.0000 -0.5283 0.8490
vn -0.0000 -0.9337 0.3582
vn -0.0000 0.1356 0.9908
vn -0.0000 -0.5356 0.8445
vn -0.0000 0.9995 -0.0320
vn -0.0000 -0.2506 -0.9681
vn -0.0000 -0.8802 0.4746
vn -0.0000 -0.5437 0.8393
vn -0.0000 -0.3792 -0.9253
vn -0.0000 -0.8063 0.5915
vn -0.0000 -0.7306 0.6829
vn -0.0000 -0.5521 0.8338
vn -0.0000 -0.7112 0.7030
vn -0.0000 0.2312 0.9729
vn -0.0000 -0.5604 0.8282
vn -0.0000 0.9931 -0.1173
vn -0.0000 -0.5136 -0.8580
vn -0.0000 -0.5680 0.8230
vn -0.0000 0.9737 -0.2278
vn -0.0000 -0.5966 0.8025
vn -0.0000 0.3288 0.9444
vn -0.0000 -0.5743 0.8186
vn -0.0000 0.9367 -0.3501
vn -0.0000 -0.6446 -0.7645
vn -0.0000 -0.5793 0.8151
vn -0.0000 0.9994 -0.0356
vn -0.0000 0.6386 -0.7696
vn -0.0000 -0.6896 0.7242
vn -0.0000 0.4261 0.9047
vn -0.0000 -0.5828 0.8126
vn -0.0000 0.9932 -0.1167
vn -0.0000 0.8837 -0.4681
vn -0.0000 -0.7614 -0.6483
vn -0.0000 -0.5849 0.8111
vn -0.0000 0.9773 -0.2118
vn -0.0000 0.8218 -0.5698
vn -0.0000 -0.3928 -0.9196
vn -0.0000 -0.8553 -0.5182
vn -0.0000 -0.6355 0.7721
vn -0.0000 -0.5859 0.8104
vn -0.0000 -0.6337 -0.7736
vn -0.0000 -0.4675 0.8840
vn -0.0000 -0.6514 0.7587
vn -0.0000 0.5204 0.8539
vn -0.0000 -0.5861 0.8102
vn -0.0000 0.9469 -0.3216
vn -0.0000 0.7595 -0.6506
vn -0.0000 -0.9229 -0.3851
vn -0.0000 0.6372 0.7707
vn -0.0000 0.8961 -0.4438
vn -0.0000 -0.4063 0.9138
vn -0.0000 -0.9660 -0.2585
vn -0.0000 -0.0002 -1.0000
vn -0.0000 0.0002 1.0000
vt 0.229331 0.522980
vt 0.242181 0.522980
vt 0.242181 0.625781
vt 0.229331 0.625781
vt 0.229331 0.702882
vt 0.242181 0.702882
vt 0.242181 0.728582
vt 0.229331 0.728582
vt 0.242181 0.831383
vt 0.229331 0.831383
vt 0.229331 0.908483
vt 0.242181 0.908483
vt 0.242181 0.934183
vt 0.229331 0.934183
vt 0.113680 0.728582
vt 0.139381 0.728582
vt 0.139381 0.831383
vt 0.113680 0.831383
vt 0.319282 0.728582
vt 0.344982 0.728582
vt 0.344982 0.831383
vt 0.319282 0.831383
vt 0.670915 0.467471
vt 0.670902 0.466479
vt 0.920880 0.463193
vt 0.920893 0.464185
vt 0.084768 0.728582
vt 0.087980 0.728582
vt 0.087980 0.831383
vt 0.084768 0.831383
vt 0.679262 0.634698
vt 0.710512 0.634698
vt 0.710512 0.635689
vt 0.679262 0.635689
vt 0.680618 0.611945
vt 0.711868 0.611945
vt 0.711868 0.612921
vt 0.680618 0.612921
vt 0.242181 0.651481
vt 0.229331 0.651481
vt 0.036580 0.728582
vt 0.062280 0.728582
vt 0.062280 0.831383
vt 0.036580 0.831383
vt 0.306432 0.728582
vt 0.306432 0.831383
vt 0.229331 0.895633
vt 0.242181 0.895633
vt 0.242181 0.857083
vt 0.229331 0.857083
vt 0.267882 0.728582
vt 0.267882 0.831383
vt 0.101024 0.728582
vt 0.101024 0.831383
vt 0.229331 0.690225
vt 0.242181 0.690225
vt 0.845980 0.895977
vt 0.877230 0.895977
vt 0.877230 0.903789
vt 0.845980 0.903789
vt 0.776313 0.658106
vt 0.784126 0.658106
vt 0.784126 0.908106
vt 0.776313 0.908106
vt 0.242181 0.664331
vt 0.229331 0.664331
vt 0.075130 0.728582
vt 0.075130 0.831383
vt 0.671262 0.943269
vt 0.702512 0.943269
vt 0.702512 0.951199
vt 0.671262 0.951199
vt 0.097763 0.728582
vt 0.097763 0.831383
vt 0.242181 0.869739
vt 0.229331 0.869739
vt 0.280538 0.728582
vt 0.280538 0.831383
vt 0.139381 0.857083
vt 0.190781 0.857083
vt 0.190781 0.869739
vt 0.139381 0.869739
vt 0.139381 0.686964
vt 0.190781 0.686964
vt 0.190781 0.690225
vt 0.139381 0.690225
vt 0.139381 0.651481
vt 0.190781 0.651481
vt 0.190781 0.664331
vt 0.139381 0.664331
vt 0.139381 0.892421
vt 0.190781 0.892421
vt 0.190781 0.895633
vt 0.139381 0.895633
vt 0.190781 0.702882
vt 0.139381 0.702882
vt 0.190781 0.831383
vt 0.190781 0.908483
vt 0.139381 0.908483
vt 0.139381 0.625781
vt 0.190781 0.625781
vt 0.139381 0.673969
vt 0.190781 0.673969
vt 0.190781 0.677181
vt 0.139381 0.677181
vt 0.139381 0.879522
vt 0.190781 0.879522
vt 0.190781 0.882783
vt 0.139381 0.882783
vt 0.190781 0.934183
vt 0.139381 0.934183
vt 0.190781 0.806423
vt 0.190498 0.806157
vt 0.190106 0.805837
vt 0.189682 0.805534
vt 0.189228 0.805244
vt 0.188743 0.804965
vt 0.188227 0.804693
vt 0.187679 0.804427
vt 0.187101 0.804162
vt 0.186492 0.803895
vt 0.185852 0.803625
vt 0.185181 0.803347
vt 0.184480 0.803059
vt 0.184099 0.802900
vt 0.183744 0.802750
vt 0.183407 0.802603
vt 0.183081 0.802459
vt 0.182757 0.802312
vt 0.182429 0.802160
vt 0.182088 0.802000
vt 0.181727 0.801828
vt 0.181337 0.801641
vt 0.180912 0.801435
vt 0.180443 0.801208
vt 0.179923 0.800956
vt 0.190781 0.797849
vt 0.189901 0.809452
vt 0.189914 0.809731
vt 0.189914 0.810658
vt 0.179923 0.810658
vt 0.179923 0.812875
vt 0.190781 0.812875
vt 0.190781 0.728582
vt 0.190781 0.750933
vt 0.179923 0.744936
vt 0.179923 0.747604
vt 0.189442 0.752851
vt 0.179923 0.758166
vt 0.179923 0.760858
vt 0.190781 0.754798
vt 0.190781 0.761988
vt 0.190049 0.761988
vt 0.190049 0.768298
vt 0.182893 0.768298
vt 0.182893 0.761559
vt 0.179923 0.761559
vt 0.179923 0.770515
vt 0.190781 0.770515
vt 0.190781 0.777933
vt 0.179923 0.777933
vt 0.179923 0.780149
vt 0.190781 0.780149
vt 0.190781 0.789106
vt 0.179923 0.785871
vt 0.179923 0.788133
vt 0.186708 0.790191
vt 0.186708 0.796749
vt 0.179923 0.798694
vt 0.179923 0.803602
vt 0.184648 0.805638
vt 0.185745 0.806124
vt 0.186679 0.806569
vt 0.187465 0.806977
vt 0.188114 0.807352
vt 0.188639 0.807700
vt 0.189054 0.808024
vt 0.189369 0.808329
vt 0.189599 0.808620
vt 0.189756 0.808901
vt 0.189852 0.809177
vt 0.584548 0.063742
vt 0.584491 0.088040
vt 0.586746 0.088046
vt 0.587425 0.088015
vt 0.588094 0.087898
vt 0.588766 0.087666
vt 0.589450 0.087286
vt 0.590159 0.086728
vt 0.590903 0.085962
vt 0.591693 0.084957
vt 0.592541 0.083681
vt 0.593458 0.082105
vt 0.594454 0.080197
vt 0.595541 0.077927
vt 0.596731 0.075263
vt 0.601708 0.063783
vt 0.608143 0.063798
vt 0.607527 0.065062
vt 0.606972 0.066201
vt 0.606470 0.067234
vt 0.606012 0.068180
vt 0.605592 0.069058
vt 0.605200 0.069886
vt 0.604829 0.070684
vt 0.604471 0.071469
vt 0.604117 0.072262
vt 0.603759 0.073080
vt 0.603390 0.073942
vt 0.603002 0.074868
vt 0.602298 0.076573
vt 0.601618 0.078203
vt 0.600957 0.079758
vt 0.600306 0.081237
vt 0.599658 0.082641
vt 0.599007 0.083970
vt 0.598343 0.085224
vt 0.597662 0.086402
vt 0.596955 0.087505
vt 0.596214 0.088533
vt 0.595433 0.089486
vt 0.594785 0.090173
vt 0.579096 0.090135
vt 0.579158 0.063729
vt 0.636899 0.090273
vt 0.631260 0.090259
vt 0.632067 0.087579
vt 0.620407 0.087551
vt 0.621143 0.090235
vt 0.615637 0.090222
vt 0.613643 0.063811
vt 0.618334 0.080322
vt 0.634284 0.080360
vt 0.639328 0.063872
vt 0.644828 0.063885
vt 0.664133 0.063931
vt 0.664070 0.090337
vt 0.658680 0.090325
vt 0.658743 0.063918
vt 0.702849 0.088650
vt 0.702845 0.090430
vt 0.682110 0.090380
vt 0.682173 0.063974
vt 0.703953 0.064026
vt 0.703936 0.071250
vt 0.687546 0.071211
vt 0.687505 0.088614
vt 0.725073 0.087225
vt 0.737888 0.064106
vt 0.744378 0.064122
vt 0.729730 0.090494
vt 0.720330 0.090471
vt 0.705658 0.064030
vt 0.712203 0.064045
vt 0.188114 0.601751
vt 0.188639 0.602098
vt 0.189054 0.602422
vt 0.189369 0.602727
vt 0.189599 0.603018
vt 0.189756 0.603299
vt 0.189852 0.603575
vt 0.189901 0.603850
vt 0.189914 0.604130
vt 0.189914 0.605057
vt 0.179923 0.605057
vt 0.179923 0.607273
vt 0.190781 0.607273
vt 0.139381 0.522980
vt 0.190781 0.522980
vt 0.190781 0.545332
vt 0.179923 0.539334
vt 0.179923 0.542003
vt 0.189442 0.547250
vt 0.179923 0.552565
vt 0.179923 0.555256
vt 0.190781 0.549197
vt 0.190781 0.556387
vt 0.190049 0.556387
vt 0.190049 0.562697
vt 0.182893 0.562697
vt 0.182893 0.555957
vt 0.179923 0.555957
vt 0.179923 0.564913
vt 0.190781 0.564913
vt 0.190781 0.572331
vt 0.179923 0.572331
vt 0.179923 0.574548
vt 0.190781 0.574548
vt 0.190781 0.583504
vt 0.179923 0.580269
vt 0.179923 0.582531
vt 0.186708 0.584589
vt 0.186708 0.591148
vt 0.179923 0.593093
vt 0.179923 0.595354
vt 0.179923 0.598001
vt 0.184648 0.600036
vt 0.185745 0.600523
vt 0.186679 0.600967
vt 0.187465 0.601375
vt 0.183744 0.597148
vt 0.183407 0.597002
vt 0.183081 0.596857
vt 0.182757 0.596711
vt 0.182429 0.596559
vt 0.182088 0.596398
vt 0.181727 0.596226
vt 0.181337 0.596039
vt 0.180912 0.595834
vt 0.180443 0.595607
vt 0.190781 0.592247
vt 0.190781 0.600822
vt 0.190498 0.600556
vt 0.190106 0.600236
vt 0.189682 0.599932
vt 0.189228 0.599642
vt 0.188743 0.599363
vt 0.188227 0.599092
vt 0.187679 0.598825
vt 0.187101 0.598560
vt 0.186492 0.598294
vt 0.185852 0.598023
vt 0.185181 0.597746
vt 0.184480 0.597458
vt 0.184099 0.597299
vt 0.470381 0.087978
vt 0.483190 0.064856
vt 0.489680 0.064870
vt 0.475039 0.091245
vt 0.465639 0.091225
vt 0.450960 0.064788
vt 0.457505 0.064802
vt 0.432812 0.089376
vt 0.448157 0.089409
vt 0.448154 0.091188
vt 0.427419 0.091145
vt 0.427475 0.064738
vt 0.449255 0.064784
vt 0.449239 0.072008
vt 0.432849 0.071973
vt 0.409379 0.091106
vt 0.403989 0.091095
vt 0.404045 0.064688
vt 0.409435 0.064700
vt 0.360945 0.091004
vt 0.353445 0.064581
vt 0.358945 0.064593
vt 0.363640 0.081103
vt 0.379590 0.081137
vt 0.384630 0.064647
vt 0.390130 0.064659
vt 0.382208 0.091049
vt 0.376568 0.091037
vt 0.377375 0.088356
vt 0.365715 0.088331
vt 0.366451 0.091015
vt 0.190781 0.585823
vt 0.190781 0.589983
vt 0.189678 0.590288
vt 0.189678 0.585494
vt 0.342262 0.088292
vt 0.341522 0.089320
vt 0.340742 0.090272
vt 0.340093 0.090960
vt 0.324404 0.090926
vt 0.324460 0.064520
vt 0.329850 0.064531
vt 0.329798 0.088830
vt 0.332053 0.088835
vt 0.332732 0.088803
vt 0.333402 0.088687
vt 0.334074 0.088454
vt 0.334758 0.088074
vt 0.335467 0.087516
vt 0.336210 0.086750
vt 0.337000 0.085744
vt 0.337848 0.084469
vt 0.338764 0.082892
vt 0.339760 0.080984
vt 0.340847 0.078713
vt 0.342035 0.076050
vt 0.347010 0.064568
vt 0.352829 0.065845
vt 0.352274 0.066985
vt 0.351772 0.068018
vt 0.351315 0.068964
vt 0.350895 0.069842
vt 0.350503 0.070670
vt 0.350132 0.071468
vt 0.349774 0.072253
vt 0.349420 0.073046
vt 0.349063 0.073864
vt 0.348695 0.074727
vt 0.348306 0.075653
vt 0.347603 0.077358
vt 0.346924 0.078988
vt 0.346263 0.080543
vt 0.345612 0.082022
vt 0.344965 0.083427
vt 0.344313 0.084756
vt 0.343651 0.086010
vt 0.342969 0.087188
vt 0.210056 0.857083
vt 0.216481 0.857083
vt 0.216481 0.869739
vt 0.210056 0.869739
vt 0.624387 0.943269
vt 0.640012 0.943269
vt 0.640012 0.951199
vt 0.624387 0.951199
vt 0.210056 0.651481
vt 0.216481 0.651481
vt 0.216481 0.664331
vt 0.210056 0.664331
vt 0.799105 0.895977
vt 0.814730 0.895977
vt 0.814730 0.903789
vt 0.799105 0.903789
vt 0.210056 0.690225
vt 0.216481 0.690225
vt 0.216481 0.702882
vt 0.210056 0.702882
vt 0.210056 0.831383
vt 0.216481 0.831383
vt 0.210056 0.895633
vt 0.216481 0.895633
vt 0.216481 0.908483
vt 0.210056 0.908483
vt 0.210056 0.625781
vt 0.216481 0.625781
vt 0.633743 0.611945
vt 0.649368 0.611945
vt 0.649368 0.612921
vt 0.633743 0.612921
vt 0.632387 0.634698
vt 0.648012 0.634698
vt 0.648012 0.635689
vt 0.632387 0.635689
vt 0.216481 0.934183
vt 0.210056 0.934183
vt 0.210056 0.728582
vt 0.216481 0.728582
vt 0.210056 0.522980
vt 0.216481 0.522980
vt 0.203079 0.588728
vt 0.203079 0.587167
vt 0.199973 0.574548
vt 0.199973 0.579885
vt 0.202944 0.579885
vt 0.202944 0.566994
vt 0.199973 0.566994
vt 0.199973 0.572331
vt 0.202944 0.564913
vt 0.202944 0.556161
vt 0.199973 0.556161
vt 0.199973 0.562697
vt 0.193020 0.562697
vt 0.193020 0.556387
vt 0.191838 0.548607
vt 0.202944 0.554781
vt 0.202944 0.552090
vt 0.194167 0.547250
vt 0.202944 0.542433
vt 0.202944 0.539764
vt 0.191838 0.545915
vt 0.203631 0.522980
vt 0.203631 0.625781
vt 0.200609 0.607273
vt 0.202944 0.607273
vt 0.202944 0.603383
vt 0.202893 0.602628
vt 0.202743 0.601924
vt 0.202497 0.601275
vt 0.202158 0.600683
vt 0.201729 0.600150
vt 0.201214 0.599680
vt 0.200616 0.599275
vt 0.199938 0.598937
vt 0.199184 0.598670
vt 0.198357 0.598476
vt 0.197460 0.598357
vt 0.196594 0.598321
vt 0.196497 0.598317
vt 0.195844 0.598336
vt 0.195221 0.598393
vt 0.194628 0.598488
vt 0.194067 0.598619
vt 0.193539 0.598785
vt 0.193045 0.598987
vt 0.192586 0.599223
vt 0.192163 0.599493
vt 0.191778 0.599796
vt 0.191432 0.600131
vt 0.191125 0.600498
vt 0.190859 0.600895
vt 0.473613 0.093814
vt 0.488516 0.120853
vt 0.482026 0.120839
vt 0.470356 0.099471
vt 0.458541 0.120789
vt 0.451996 0.120775
vt 0.467068 0.093800
vt 0.448142 0.096633
vt 0.432797 0.096600
vt 0.432761 0.113511
vt 0.448656 0.113544
vt 0.448641 0.120768
vt 0.427356 0.120723
vt 0.403941 0.113450
vt 0.409331 0.113461
vt 0.422311 0.113488
vt 0.422296 0.120712
vt 0.390946 0.120646
vt 0.390961 0.113422
vt 0.371282 0.108619
vt 0.373235 0.120937
vt 0.369440 0.120929
vt 0.198016 0.587982
vt 0.337350 0.120044
vt 0.335638 0.120405
vt 0.333801 0.120525
vt 0.324341 0.120505
vt 0.324353 0.114826
vt 0.329746 0.113621
vt 0.333211 0.113628
vt 0.334453 0.113565
vt 0.335568 0.113372
vt 0.336560 0.113053
vt 0.337434 0.112612
vt 0.338192 0.112054
vt 0.338839 0.111382
vt 0.339379 0.110601
vt 0.339815 0.109714
vt 0.340151 0.108725
vt 0.340391 0.107639
vt 0.340539 0.106458
vt 0.340599 0.105189
vt 0.346144 0.105110
vt 0.346052 0.107215
vt 0.345759 0.109396
vt 0.345283 0.111406
vt 0.344629 0.113239
vt 0.343805 0.114885
vt 0.342816 0.116337
vt 0.341670 0.117587
vt 0.340373 0.118626
vt 0.338931 0.119448
vt 0.346111 0.103285
vt 0.346154 0.104872
vt 0.340578 0.104026
vt 0.340478 0.102889
vt 0.340290 0.101790
vt 0.340005 0.100745
vt 0.339616 0.099769
vt 0.339113 0.098875
vt 0.338489 0.098078
vt 0.337735 0.097393
vt 0.336842 0.096834
vt 0.335802 0.096416
vt 0.334607 0.096154
vt 0.333248 0.096061
vt 0.329783 0.096054
vt 0.339914 0.091150
vt 0.340879 0.091798
vt 0.341769 0.092545
vt 0.342582 0.093390
vt 0.343317 0.094328
vt 0.343971 0.095357
vt 0.344543 0.096475
vt 0.345031 0.097678
vt 0.345434 0.098963
vt 0.345749 0.100328
vt 0.345975 0.101770
vt 0.193429 0.601786
vt 0.193710 0.601475
vt 0.194037 0.601218
vt 0.194404 0.601010
vt 0.194805 0.600849
vt 0.195234 0.600731
vt 0.195686 0.600653
vt 0.196154 0.600611
vt 0.196632 0.600601
vt 0.197154 0.600625
vt 0.197639 0.600685
vt 0.198086 0.600782
vt 0.198493 0.600920
vt 0.198858 0.601098
vt 0.199180 0.601319
vt 0.199457 0.601585
vt 0.199687 0.601896
vt 0.199869 0.602255
vt 0.200001 0.602663
vt 0.200081 0.603121
vt 0.200108 0.603632
vt 0.200108 0.605057
vt 0.192885 0.605057
vt 0.192885 0.603632
vt 0.192922 0.603073
vt 0.193029 0.602581
vt 0.193200 0.602153
vt 0.203631 0.702882
vt 0.203631 0.728582
vt 0.203079 0.794329
vt 0.203079 0.792769
vt 0.199973 0.780149
vt 0.199973 0.785487
vt 0.202944 0.785487
vt 0.202944 0.772595
vt 0.199973 0.772595
vt 0.199973 0.777933
vt 0.202944 0.770515
vt 0.202944 0.761762
vt 0.199973 0.761762
vt 0.199973 0.768298
vt 0.193020 0.768298
vt 0.193020 0.761988
vt 0.191838 0.754208
vt 0.202944 0.760383
vt 0.202944 0.757691
vt 0.194168 0.752851
vt 0.202944 0.748034
vt 0.202944 0.745366
vt 0.191838 0.751517
vt 0.203631 0.831383
vt 0.202944 0.812875
vt 0.202944 0.808985
vt 0.202893 0.808230
vt 0.202743 0.807526
vt 0.202497 0.806877
vt 0.202158 0.806284
vt 0.201729 0.805752
vt 0.201214 0.805281
vt 0.200616 0.804876
vt 0.199938 0.804539
vt 0.199184 0.804271
vt 0.198357 0.804077
vt 0.197460 0.803959
vt 0.196675 0.803926
vt 0.196497 0.803919
vt 0.195965 0.803934
vt 0.195844 0.803938
vt 0.195221 0.803995
vt 0.194628 0.804089
vt 0.194067 0.804220
vt 0.193539 0.804387
vt 0.193045 0.804589
vt 0.192586 0.804825
vt 0.192163 0.805095
vt 0.191778 0.805398
vt 0.191432 0.805733
vt 0.191125 0.806099
vt 0.190859 0.806497
vt 0.595287 0.104402
vt 0.595266 0.103239
vt 0.600807 0.102793
vt 0.600842 0.104087
vt 0.600823 0.104520
vt 0.598490 0.114099
vt 0.597501 0.115551
vt 0.596355 0.116800
vt 0.595057 0.117840
vt 0.593615 0.118661
vt 0.592034 0.119256
vt 0.590322 0.119617
vt 0.588485 0.119736
vt 0.579025 0.119714
vt 0.594605 0.090363
vt 0.595570 0.091011
vt 0.596460 0.091759
vt 0.597273 0.092604
vt 0.598008 0.093542
vt 0.598661 0.094572
vt 0.599233 0.095689
vt 0.599721 0.096892
vt 0.600123 0.098178
vt 0.600438 0.099543
vt 0.600664 0.100984
vt 0.600800 0.102500
vt 0.595166 0.102102
vt 0.594979 0.101003
vt 0.594694 0.099958
vt 0.594305 0.098982
vt 0.593803 0.098088
vt 0.593179 0.097291
vt 0.592425 0.096606
vt 0.591532 0.096047
vt 0.590492 0.095628
vt 0.589297 0.095366
vt 0.587938 0.095272
vt 0.584473 0.095264
vt 0.584432 0.112831
vt 0.587897 0.112840
vt 0.589138 0.112776
vt 0.590254 0.112584
vt 0.591246 0.112265
vt 0.592120 0.111825
vt 0.592878 0.111267
vt 0.593526 0.110595
vt 0.594066 0.109814
vt 0.594502 0.108927
vt 0.594838 0.107938
vt 0.595079 0.106852
vt 0.595227 0.105672
vt 0.600739 0.106430
vt 0.600446 0.108611
vt 0.599969 0.110621
vt 0.599315 0.112453
vt 0.625969 0.107840
vt 0.627919 0.120159
vt 0.624124 0.120150
vt 0.190781 0.795585
vt 0.190781 0.791425
vt 0.198016 0.793583
vt 0.676980 0.119947
vt 0.645630 0.119872
vt 0.645647 0.112648
vt 0.658627 0.112679
vt 0.664017 0.112692
vt 0.676997 0.112723
vt 0.687447 0.112748
vt 0.703342 0.112786
vt 0.703325 0.120009
vt 0.682040 0.119959
vt 0.702832 0.095874
vt 0.687487 0.095837
vt 0.721759 0.093046
vt 0.728304 0.093061
vt 0.743200 0.120104
vt 0.736710 0.120089
vt 0.725046 0.098718
vt 0.713225 0.120033
vt 0.706680 0.120018
vt 0.199180 0.806921
vt 0.199457 0.807187
vt 0.199687 0.807498
vt 0.199869 0.807857
vt 0.200001 0.808265
vt 0.200081 0.808723
vt 0.200108 0.809234
vt 0.200108 0.810658
vt 0.192885 0.810658
vt 0.192885 0.809234
vt 0.192922 0.808675
vt 0.193029 0.808183
vt 0.193200 0.807755
vt 0.193429 0.807387
vt 0.193710 0.807077
vt 0.194037 0.806819
vt 0.194404 0.806612
vt 0.194805 0.806451
vt 0.195234 0.806333
vt 0.195686 0.806255
vt 0.196154 0.806213
vt 0.196632 0.806203
vt 0.197154 0.806226
vt 0.197639 0.806286
vt 0.198086 0.806384
vt 0.198493 0.806521
vt 0.198858 0.806700
vt 0.203631 0.908483
vt 0.203631 0.934183
vt 0.203631 0.879522
vt 0.203631 0.882783
vt 0.203631 0.673969
vt 0.203631 0.677181
vt 0.203631 0.651481
vt 0.203631 0.895633
vt 0.203631 0.857083
vt 0.203631 0.690225
vt 0.203631 0.892421
vt 0.203631 0.664331
vt 0.203631 0.686964
vt 0.203631 0.869739
vt 0.674286 0.864104
vt 0.686005 0.865095
vt 0.686005 0.866086
vt 0.670380 0.866086
vt 0.678193 0.858156
vt 0.686005 0.858156
vt 0.678193 0.862121
vt 0.673787 0.769863
vt 0.681600 0.769863
vt 0.673787 0.773770
vt 0.669881 0.775723
vt 0.681600 0.776699
vt 0.681600 0.777676
vt 0.665975 0.777676
vt 0.686005 0.889524
vt 0.686005 0.897336
vt 0.670380 0.897336
vt 0.670380 0.889524
vt 0.665975 0.801467
vt 0.681600 0.801467
vt 0.665975 0.809397
vt 0.681600 0.809397
vt 0.669881 0.785606
vt 0.673787 0.785606
vt 0.681600 0.785606
vt 0.673787 0.789571
vt 0.681600 0.793536
vt 0.665975 0.793536
vt 0.686005 0.842296
vt 0.686005 0.850226
vt 0.670380 0.850226
vt 0.670380 0.842296
vt 0.190781 0.680442
vt 0.203631 0.680442
vt 0.203631 0.683703
vt 0.190781 0.683703
vt 0.190781 0.873000
vt 0.203631 0.873000
vt 0.203631 0.876261
vt 0.190781 0.876261
vt 0.748135 0.931954
vt 0.779385 0.931954
vt 0.779385 0.939884
vt 0.748135 0.939884
vt 0.640012 0.927409
vt 0.671262 0.927409
vt 0.671262 0.935339
vt 0.640012 0.935339
vt 0.732510 0.931954
vt 0.732510 0.939884
vt 0.624387 0.927409
vt 0.624387 0.935339
vt 0.139381 0.873000
vt 0.139381 0.876261
vt 0.139381 0.680442
vt 0.139381 0.683703
vt 0.091241 0.728582
vt 0.094502 0.728582
vt 0.094502 0.831383
vt 0.091241 0.831383
vt 0.702512 0.927409
vt 0.702512 0.935339
vt 0.810635 0.931954
vt 0.810635 0.939884
vt 0.719765 0.658511
vt 0.727696 0.658511
vt 0.727696 0.908511
vt 0.719765 0.908511
vt 0.686005 0.873899
vt 0.686005 0.881711
vt 0.670380 0.881711
vt 0.678193 0.877805
vt 0.674286 0.873899
vt 0.678193 0.873899
vt 0.665975 0.754238
vt 0.681600 0.754238
vt 0.665975 0.762051
vt 0.681600 0.762051
vt 0.190781 0.885996
vt 0.203631 0.885996
vt 0.203631 0.889208
vt 0.190781 0.889208
vt 0.190781 0.667544
vt 0.203631 0.667544
vt 0.203631 0.670756
vt 0.190781 0.670756
vt 0.630666 0.714146
vt 0.661916 0.714146
vt 0.661916 0.721958
vt 0.630666 0.721958
vt 0.814730 0.880352
vt 0.845980 0.880352
vt 0.845980 0.888164
vt 0.814730 0.888164
vt 0.615041 0.714146
vt 0.615041 0.721958
vt 0.799105 0.880352
vt 0.799105 0.888164
vt 0.139381 0.667544
vt 0.139381 0.670756
vt 0.139381 0.885996
vt 0.139381 0.889208
vt 0.760688 0.658106
vt 0.768501 0.658106
vt 0.768501 0.908106
vt 0.760688 0.908106
vt 0.877230 0.880352
vt 0.877230 0.888164
vt 0.693166 0.714146
vt 0.693166 0.721958
vt 0.078343 0.728582
vt 0.081555 0.728582
vt 0.081555 0.831383
vt 0.078343 0.831383
vt 0.711835 0.658511
vt 0.711835 0.908511
vt 0.779385 0.924024
vt 0.810635 0.924024
vt 0.732510 0.924024
vt 0.748135 0.924024
vt 0.670380 0.834366
vt 0.686005 0.834366
vt 0.671262 0.923444
vt 0.702512 0.923444
vt 0.624387 0.923444
vt 0.640012 0.923444
vt 0.681600 0.779658
vt 0.681600 0.781641
vt 0.665975 0.785606
vt 0.670380 0.858156
vt 0.779385 0.947814
vt 0.748135 0.947814
vt 0.732510 0.947814
vt 0.810635 0.947814
vt 0.735626 0.658511
vt 0.735626 0.908511
vt 0.845980 0.876445
vt 0.877230 0.876445
vt 0.756782 0.658106
vt 0.756782 0.908106
vt 0.799105 0.876446
vt 0.814730 0.876445
vt 0.670380 0.873899
vt 0.686005 0.868039
vt 0.686005 0.869993
vt 0.665975 0.769863
vt 0.661916 0.729771
vt 0.630666 0.729771
vt 0.615041 0.729771
vt 0.693166 0.729771
vt 0.661916 0.706333
vt 0.693166 0.706333
vt 0.615041 0.706333
vt 0.630666 0.706333
vt 0.681600 0.746426
vt 0.665975 0.746426
vt 0.454545 0.000000
vt 0.363636 0.000000
vt 0.272727 0.000000
vt 0.181818 0.000000
vt 0.064817 0.000000
vt 0.000000 0.000000
vt 1.000000 0.000000
vt 0.729565 0.000000
vt 0.545455 0.000000
vt 0.869029 0.000000
vt 0.727273 0.000000
vt 0.757922 0.000000
vt 0.909091 0.000000
vt 0.636364 0.000000
vt 0.818182 0.000000
vt 0.090909 0.000000
vt 0.226814 0.000000
vt 0.285714 0.000000
vt 0.571429 0.000000
vt 0.857143 0.000000
vt 0.714286 0.000000
vt 0.200000 0.000000
vt 0.038122 0.000000
vt 0.800000 0.000000
vt 0.789443 0.000000
vt 0.700000 0.000000
vt 0.900000 0.000000
vt 0.400000 0.000000
vt 0.476000 0.000000
vt 0.486207 0.000000
vt 0.500000 0.000000
vt 0.300000 0.000000
vt 0.600000 0.000000
vt 0.010753 0.000000
vt 0.720430 0.000000
vt 0.709677 0.000000
vt 0.705612 0.000000
vt 0.698925 0.000000
vt 0.695418 0.000000
vt 0.688172 0.000000
vt 0.684804 0.000000
vt 0.677419 0.000000
vt 0.673947 0.000000
vt 0.666667 0.000000
vt 0.662917 0.000000
vt 0.655914 0.000000
vt 0.651744 0.000000
vt 0.645161 0.000000
vt 0.640437 0.000000
vt 0.634409 0.000000
vt 0.731183 0.000000
vt 0.631387 0.000000
vt 0.623656 0.000000
vt 0.741935 0.000000
vt 0.752688 0.000000
vt 0.763441 0.000000
vt 0.624121 0.000000
vt 0.612903 0.000000
vt 0.774194 0.000000
vt 0.784946 0.000000
vt 0.795699 0.000000
vt 0.615364 0.000000
vt 0.602151 0.000000
vt 0.806452 0.000000
vt 0.817204 0.000000
vt 0.827957 0.000000
vt 0.602952 0.000000
vt 0.591398 0.000000
vt 0.838710 0.000000
vt 0.849462 0.000000
vt 0.585314 0.000000
vt 0.580645 0.000000
vt 0.860215 0.000000
vt 0.870968 0.000000
vt 0.869762 0.000000
vt 0.569892 0.000000
vt 0.881720 0.000000
vt 0.876041 0.000000
vt 0.559140 0.000000
vt 0.892473 0.000000
vt 0.881307 0.000000
vt 0.903226 0.000000
vt 0.886707 0.000000
vt 0.548387 0.000000
vt 0.913979 0.000000
vt 0.890654 0.000000
vt 0.537634 0.000000
vt 0.924731 0.000000
vt 0.893838 0.000000
vt 0.526882 0.000000
vt 0.935484 0.000000
vt 0.896386 0.000000
vt 0.946237 0.000000
vt 0.902803 0.000000
vt 0.516129 0.000000
vt 0.956989 0.000000
vt 0.905803 0.000000
vt 0.967742 0.000000
vt 0.913972 0.000000
vt 0.505376 0.000000
vt 0.978495 0.000000
vt 0.918067 0.000000
vt 0.989247 0.000000
vt 0.927903 0.000000
vt 0.032258 0.000000
vt 0.147817 0.000000
vt 0.494624 0.000000
vt 0.483871 0.000000
vt 0.473118 0.000000
vt 0.462366 0.000000
vt 0.451613 0.000000
vt 0.410019 0.000000
vt 0.440860 0.000000
vt 0.403692 0.000000
vt 0.430108 0.000000
vt 0.043011 0.000000
vt 0.053763 0.000000
vt 0.391040 0.000000
vt 0.419355 0.000000
vt 0.021505 0.000000
vt 0.064516 0.000000
vt 0.075269 0.000000
vt 0.086022 0.000000
vt 0.380909 0.000000
vt 0.408602 0.000000
vt 0.096774 0.000000
vt 0.107527 0.000000
vt 0.371357 0.000000
vt 0.397849 0.000000
vt 0.118280 0.000000
vt 0.362826 0.000000
vt 0.387097 0.000000
vt 0.129032 0.000000
vt 0.353798 0.000000
vt 0.376344 0.000000
vt 0.139785 0.000000
vt 0.344337 0.000000
vt 0.365591 0.000000
vt 0.150538 0.000000
vt 0.334494 0.000000
vt 0.354839 0.000000
vt 0.161290 0.000000
vt 0.324302 0.000000
vt 0.344086 0.000000
vt 0.316128 0.000000
vt 0.333333 0.000000
vt 0.172043 0.000000
vt 0.305770 0.000000
vt 0.322581 0.000000
vt 0.182796 0.000000
vt 0.282614 0.000000
vt 0.311828 0.000000
vt 0.280145 0.000000
vt 0.301075 0.000000
vt 0.274587 0.000000
vt 0.290323 0.000000
vt 0.267320 0.000000
vt 0.279570 0.000000
vt 0.259041 0.000000
vt 0.268817 0.000000
vt 0.250140 0.000000
vt 0.258065 0.000000
vt 0.240857 0.000000
vt 0.247312 0.000000
vt 0.231345 0.000000
vt 0.236559 0.000000
vt 0.221703 0.000000
vt 0.225806 0.000000
vt 0.211994 0.000000
vt 0.215054 0.000000
vt 0.202260 0.000000
vt 0.204301 0.000000
vt 0.192524 0.000000
vt 0.193548 0.000000
vt 0.428571 0.000000
vt 0.494065 0.000000
vt 0.247312 0.000000
vt 0.454545 0.000000
vt 0.791650 0.000000
vt 0.100000 0.000000
vt 0.153108 0.000000
vt 0.623656 0.000000
vt 0.774193 0.000000
vt 0.118280 0.000000
vt 0.371756 0.000000
vt 0.462612 0.000000
vt 0.973539 0.000000
vt 0.886770 0.000000
vt 0.989247 0.000000
vt 0.991934 0.000000
vt 0.138939 0.000000
vt 0.161290 0.000000
vt 0.005681 0.000000
vt 0.001091 0.000000
vt 0.581736 0.000000
vt 0.698925 0.000000
vt 0.449282 0.000000
vt 0.658759 0.000000
vt 0.559140 0.000000
vt 0.142857 0.000000
vt 0.010753 0.000000
vt 0.462612 0.000000
vt 0.784946 0.000000
vt 0.973539 0.000000
vt 0.991934 0.000000
vt 0.400000 0.000000
vt 0.827957 0.000000
vt 0.200000 0.000000
vt 0.582632 0.000000
vt 0.860215 0.000000
vt 0.709677 0.000000
vt 0.449282 0.000000
vt 0.571879 0.000000
vt 0.010753 0.000000
vt 0.924731 0.000000
vt 0.935484 0.000000
vt 0.204301 0.000000
vt 0.956989 0.000000
vt 0.371756 0.000000
vt 0.814730 0.874492
vt 0.845980 0.874492
vt 0.799105 0.874492
vt 0.754829 0.658106
vt 0.754829 0.908106
vt 0.877230 0.874492
vt 0.661916 0.733677
vt 0.630666 0.733677
vt 0.615041 0.733677
vt 0.693166 0.733677
vt 0.640012 0.921461
vt 0.671262 0.921461
vt 0.624387 0.921461
vt 0.702512 0.921461
vt 0.779385 0.951779
vt 0.748135 0.951779
vt 0.732510 0.951779
vt 0.810635 0.951779
vt 0.739591 0.658511
vt 0.739591 0.908511
vt 0.845980 0.873516
vt 0.877230 0.873516
vt 0.753852 0.658106
vt 0.753852 0.908106
vt 0.799105 0.873516
vt 0.814730 0.873516
vt 0.686005 0.867063
vt 0.681600 0.773770
vt 0.681600 0.775723
vt 0.661916 0.735630
vt 0.630666 0.735630
vt 0.615041 0.735630
vt 0.693166 0.735630
vt 0.671262 0.920470
vt 0.702512 0.920470
vt 0.624387 0.920470
vt 0.640012 0.920470
vt 0.681600 0.778667
vt 0.686005 0.862121
vt 0.686005 0.864104
vt 0.779385 0.953762
vt 0.748135 0.953762
vt 0.732510 0.953762
vt 0.810635 0.953762
vt 0.741574 0.658511
vt 0.741574 0.908511
vt 0.680618 0.613913
vt 0.649368 0.613913
vt 0.633743 0.613913
vt 0.711868 0.613913
vt 0.779385 0.954753
vt 0.748135 0.954753
vt 0.732510 0.954753
vt 0.810635 0.954753
vt 0.742565 0.658511
vt 0.742565 0.908511
vt 0.679262 0.636665
vt 0.648012 0.636665
vt 0.632387 0.636665
vt 0.670889 0.465503
vt 0.920867 0.462217
vt 0.710512 0.636665
vt 0.661916 0.736607
vt 0.630666 0.736607
vt 0.615041 0.736607
vt 0.693166 0.736607
s 0
usemtl Material.001
f 227/1/1 5/2/1 13/3/1 228/4/1
f 258/5/2 65/6/2 31/7/2 232/8/2
f 232/8/3 31/7/3 21/9/3 238/10/3
f 250/11/4 54/12/4 5/13/4 227/14/4
f 73/15/5 25/16/5 17/17/5 69/18/5
f 60/19/6 13/20/6 5/21/6 54/22/6
f 434/27/5 33/28/5 42/29/5 428/30/5
f 228/4/2 13/3/2 60/39/2 248/40/2
f 10/41/5 51/42/5 64/43/5 4/44/5
f 83/45/6 60/19/6 54/22/6 95/46/6
f 262/47/4 95/48/4 54/12/4 250/11/4
f 238/10/4 21/9/4 79/49/4 254/50/4
f 31/7/6 65/51/6 79/52/6 21/9/6
f 97/53/5 73/15/5 69/18/5 112/54/5
f 270/55/2 105/56/2 65/6/2 258/5/2
f 248/40/2 60/39/2 83/65/2 266/66/2
f 51/42/5 89/67/5 87/68/5 64/43/5
f 402/73/5 97/53/5 112/54/5 390/74/5
f 254/50/4 79/49/4 104/75/4 275/76/4
f 65/51/6 105/77/6 104/78/6 79/52/6
f 69/79/4 147/80/4 165/81/4 112/82/4
f 402/83/2 393/84/2 160/85/2 97/86/2
f 51/87/2 137/88/2 156/89/2 89/90/2
f 449/91/4 443/92/4 152/93/4 87/94/4
f 97/86/2 160/85/2 149/95/2 73/96/2
f 17/17/4 126/97/4 147/80/4 69/79/4
f 87/94/4 152/93/4 141/98/4 64/99/4
f 10/100/2 119/101/2 137/88/2 51/87/2
f 434/102/2 429/103/2 133/104/2 33/105/2
f 421/106/4 415/107/4 130/108/4 42/109/4
f 64/99/4 141/98/4 115/110/4 4/111/4
f 614/112/3 613/113/3 637/114/3 636/115/3 635/116/3 634/117/3 633/118/3 632/119/3 631/120/3 630/121/3 628/122/3 626/123/3 625/124/3 624/125/3 623/126/3 622/127/3 621/128/3 675/129/3 674/130/3 673/131/3 672/132/3 671/133/3 670/134/3 669/135/3 638/136/3 642/137/3
f 608/138/3 607/139/3 606/140/3 677/141/3 676/142/3 605/143/3 126/97/3 17/17/3 25/16/3 123/144/3 664/145/3 665/146/3 666/147/3 663/148/3 662/149/3 661/150/3 667/151/3 657/152/3 656/153/3 659/154/3 658/155/3 668/156/3 660/157/3 652/158/3 651/159/3 650/160/3 653/161/3 654/162/3 655/163/3 646/164/3 643/165/3 644/166/3 645/167/3 641/168/3 649/169/3 638/136/3 629/170/3 627/171/3 616/172/3 617/173/3 618/174/3 619/175/3 620/176/3 612/177/3 615/178/3 609/179/3 610/180/3 611/181/3
f 677/182/3 606/183/3 607/184/3 608/185/3 611/186/3 610/187/3 609/188/3 615/189/3 612/190/3 620/191/3 619/192/3 618/193/3 617/194/3 616/195/3 627/196/3 629/197/3 638/198/3 669/199/3 670/200/3 671/201/3 672/202/3 673/203/3 674/204/3 675/205/3 621/206/3 622/207/3 623/208/3 624/209/3 625/210/3 626/211/3 628/212/3 630/213/3 631/214/3 632/215/3 633/216/3 634/217/3 635/218/3 636/219/3 637/220/3 613/221/3 614/222/3 605/223/3 676/224/3
f 646/225/3 648/226/3 647/227/3 639/228/3 640/229/3 642/230/3 638/198/3 649/231/3 641/232/3 645/233/3 644/234/3 643/235/3
f 640/229/3 639/228/3 647/227/3 648/226/3
f 653/236/3 650/237/3 655/238/3 654/239/3
f 656/240/3 657/241/3 651/242/3 652/243/3 660/244/3 668/245/3 658/246/3 659/247/3
f 663/248/3 666/249/3 665/250/3 664/251/3 667/252/3 661/253/3 662/254/3
f 73/96/2 149/95/2 123/144/2 25/16/2
f 510/255/1 497/256/1 496/257/1 511/258/1 500/259/1 502/260/1 501/261/1 506/262/1 505/263/1 504/264/1 526/265/1 527/266/1 503/267/1 119/101/1 10/100/1 4/268/1 115/269/1 457/270/1 455/271/1 456/272/1 459/273/1 463/274/1 460/275/1 458/276/1 466/277/1 465/278/1 472/279/1 464/280/1 462/281/1 461/282/1 469/283/1 471/284/1 470/285/1 467/286/1 468/287/1 486/288/1 475/289/1 473/290/1 476/291/1 474/292/1 480/293/1 483/294/1 485/295/1 488/296/1 494/297/1 507/298/1 508/299/1 509/300/1
f 490/301/1 489/302/1 487/303/1 525/304/1 524/305/1 523/306/1 522/307/1 521/308/1 520/309/1 519/310/1 485/295/1 482/311/1 499/312/1 498/313/1 518/314/1 517/315/1 516/316/1 515/317/1 514/318/1 513/319/1 512/320/1 484/321/1 495/322/1 493/323/1 492/324/1 491/325/1
f 459/326/1 456/327/1 455/328/1 457/329/1 458/330/1 460/331/1 463/332/1
f 472/333/1 465/334/1 466/335/1 471/336/1 469/337/1 461/338/1 462/339/1 464/340/1
f 470/341/1 486/342/1 468/343/1 467/344/1
f 482/345/1 485/346/1 483/347/1 480/348/1 474/349/1 476/350/1 473/351/1 475/352/1 477/353/1 478/354/1 481/355/1 479/356/1
f 477/357/1 479/358/1 481/359/1 478/360/1
f 321/403/4 200/404/4 223/405/4 330/406/4
f 317/411/2 192/412/2 213/413/2 327/414/2
f 328/419/2 216/420/2 205/421/2 323/422/2
f 311/423/4 182/424/4 200/404/4 321/403/4
f 325/425/4 208/426/4 198/427/4 319/428/4
f 307/429/2 175/430/2 192/412/2 317/411/2
f 319/428/4 198/427/4 168/439/4 304/440/4
f 309/441/3 177/442/3 182/424/3 311/423/3
f 323/422/2 205/421/2 177/442/2 309/441/2
f 304/443/1 168/444/1 175/430/1 307/429/1
f 200/404/4 254/50/4 275/76/4 223/405/4
f 192/412/2 248/40/2 266/66/2 213/413/2
f 216/420/2 270/55/2 258/5/2 205/421/2
f 182/424/4 238/10/4 254/50/4 200/404/4
f 208/426/4 262/47/4 250/11/4 198/427/4
f 175/430/2 228/4/2 248/40/2 192/412/2
f 198/427/4 250/11/4 227/14/4 168/439/4
f 177/442/3 232/8/3 238/10/3 182/424/3
f 205/421/2 258/5/2 232/8/2 177/442/2
f 168/444/1 227/1/1 228/4/1 175/430/1
f 499/312/1 482/311/1 544/445/1 541/446/1 475/289/1 486/288/1 540/447/1 543/448/1 542/449/1 536/450/1 538/451/1 537/452/1 470/285/1 471/284/1 535/453/1 539/454/1 531/455/1 534/456/1 557/457/1 556/458/1 466/277/1 458/276/1 554/459/1 532/460/1 530/461/1 533/462/1 529/463/1 528/464/1 555/465/1 457/270/1 115/269/1 302/466/1 276/467/1 119/101/1 503/267/1 593/468/1 551/469/1 552/470/1 550/471/1 553/472/1 548/473/1 549/474/1 547/475/1 546/476/1 545/477/1 574/478/1 573/479/1 572/480/1 571/481/1 560/482/1 559/483/1 570/484/1 569/485/1 568/486/1 567/487/1 566/488/1 565/489/1 564/490/1 563/491/1 562/492/1 561/493/1 604/494/1 583/495/1
f 555/496/1 528/497/1 529/498/1 533/499/1 530/500/1 532/501/1 554/502/1 458/330/1 457/329/1
f 471/336/1 466/335/1 556/503/1 557/504/1 534/505/1 531/506/1 539/507/1 535/508/1
f 540/509/1 486/342/1 470/341/1 537/510/1 538/511/1 536/512/1 542/513/1 543/514/1
f 558/515/1 477/353/1 475/352/1 541/516/1 544/517/1 482/345/1 479/356/1
f 558/518/1 479/358/1 477/357/1
f 599/574/1 579/575/1 581/576/1 578/577/1 584/578/1 575/579/1 577/580/1 600/581/1 601/582/1 602/583/1 576/584/1 585/585/1 582/586/1 580/587/1 603/588/1 586/589/1 590/590/1 588/591/1 598/592/1 591/593/1 596/594/1 594/595/1 592/596/1 595/597/1 597/598/1 587/599/1 589/600/1
f 149/95/2 292/601/2 278/602/2 123/144/2
f 614/112/3 642/137/3 685/603/3 688/604/3 646/164/3 655/163/3 689/605/3 687/606/3 690/607/3 694/608/3 693/609/3 692/610/3 650/160/3 651/159/3 696/611/3 703/612/3 697/613/3 695/614/3 735/615/3 738/616/3 657/152/3 667/151/3 736/617/3 698/618/3 700/619/3 699/620/3 702/621/3 701/622/3 737/623/3 664/145/3 123/144/3 278/602/3 280/624/3 126/97/3 605/143/3 678/625/3 679/626/3 683/627/3 680/628/3 682/629/3 681/630/3 691/631/3 684/632/3 686/633/3 753/634/3 752/635/3 751/636/3 750/637/3 733/638/3 734/639/3 749/640/3 748/641/3 747/642/3 746/643/3 745/644/3 744/645/3 743/646/3 742/647/3 741/648/3 740/649/3 739/650/3 754/651/3 723/652/3
f 729/653/3 728/654/3 749/655/3 734/656/3 733/657/3
f 686/658/3 684/659/3 691/660/3 681/661/3 682/662/3 680/663/3 683/664/3 679/665/3 678/666/3 605/223/3 614/222/3 723/667/3 754/668/3 739/669/3 740/670/3 741/671/3 742/672/3 743/673/3 744/674/3 745/675/3 746/676/3 747/677/3 748/678/3 749/655/3 728/654/3 727/679/3 722/680/3 724/681/3 717/682/3 719/683/3 716/684/3 726/685/3 713/686/3 709/687/3 715/688/3 705/689/3 704/690/3 707/691/3 706/692/3 708/693/3 710/694/3 714/695/3 712/696/3 711/697/3 731/698/3 720/699/3 718/700/3 725/701/3 721/702/3 730/703/3 729/653/3 733/657/3 750/704/3 751/705/3 752/706/3 753/707/3
f 642/230/3 640/229/3 732/708/3 648/226/3 646/225/3 688/709/3 685/710/3
f 640/711/3 648/712/3 732/713/3
f 694/714/3 690/715/3 687/716/3 689/717/3 655/238/3 650/237/3 692/718/3 693/719/3
f 695/720/3 697/721/3 703/722/3 696/723/3 651/242/3 657/241/3 738/724/3 735/725/3
f 736/726/3 667/252/3 664/251/3 737/727/3 701/728/3 702/729/3 699/730/3 700/731/3 698/732/3
f 731/733/3 711/734/3 712/735/3 714/736/3 710/737/3 708/738/3 706/739/3 707/740/3 704/741/3 705/742/3 715/743/3 709/744/3 713/745/3 726/746/3 716/747/3 719/748/3 717/749/3 724/750/3 722/751/3 727/752/3 728/753/3 729/754/3 730/755/3 721/756/3 725/757/3 718/758/3 720/759/3
f 141/98/4 289/760/4 302/761/4 115/110/4
f 415/107/4 418/762/4 282/763/4 130/108/4
f 429/103/2 432/764/2 284/765/2 133/104/2
f 119/101/2 276/467/2 287/766/2 137/88/2
f 152/93/4 295/767/4 289/760/4 141/98/4
f 126/97/4 280/624/4 291/768/4 147/80/4
f 160/85/2 299/769/2 292/601/2 149/95/2
f 443/92/4 446/770/4 295/767/4 152/93/4
f 137/88/2 287/766/2 297/771/2 156/89/2
f 393/84/2 399/772/2 299/769/2 160/85/2
f 147/80/4 291/768/4 300/773/4 165/81/4
f 302/466/1 304/443/1 307/429/1 276/467/1
f 292/601/2 323/422/2 309/441/2 278/602/2
f 278/602/3 309/441/3 311/423/3 280/624/3
f 289/760/4 319/428/4 304/440/4 302/761/4
f 276/467/2 307/429/2 317/411/2 287/766/2
f 295/767/4 325/425/4 319/428/4 289/760/4
f 280/624/4 311/423/4 321/403/4 291/768/4
f 299/769/2 328/419/2 323/422/2 292/601/2
f 287/766/2 317/411/2 327/414/2 297/771/2
f 291/768/4 321/403/4 330/406/4 300/773/4
f 422/806/2 425/807/2 355/808/2 340/809/2
f 407/810/4 411/811/4 353/812/4 342/813/4
f 390/826/4 407/810/4 342/813/4 338/827/4
f 413/828/2 422/806/2 340/809/2 333/829/2
f 413/830/5 333/831/5 338/832/5 421/833/5
f 436/852/4 439/853/4 382/854/4 369/855/4
f 450/856/2 453/857/2 380/858/2 371/859/2
f 441/872/2 450/856/2 371/859/2 364/873/2
f 428/874/4 436/852/4 369/855/4 362/875/4
f 441/884/5 364/885/5 362/886/5 449/887/5
f 112/82/4 165/81/4 407/810/4 390/826/4
f 165/81/4 300/773/4 411/811/4 407/810/4
f 340/809/2 355/808/2 399/772/2 393/84/2
f 333/829/2 340/809/2 393/84/2 402/83/2
f 333/831/5 402/73/5 390/74/5 338/832/5
f 33/28/5 413/830/5 421/833/5 42/29/5
f 33/105/2 133/104/2 422/806/2 413/828/2
f 133/104/2 284/765/2 425/807/2 422/806/2
f 342/813/4 353/812/4 418/762/4 415/107/4
f 338/827/4 342/813/4 415/107/4 421/106/4
f 42/109/4 130/108/4 436/852/4 428/874/4
f 130/108/4 282/763/4 439/853/4 436/852/4
f 371/859/2 380/858/2 432/764/2 429/103/2
f 364/873/2 371/859/2 429/103/2 434/102/2
f 364/885/5 434/27/5 428/30/5 362/886/5
f 89/67/5 441/884/5 449/887/5 87/68/5
f 89/90/2 156/89/2 450/856/2 441/872/2
f 156/89/2 297/771/2 453/857/2 450/856/2
f 369/855/4 382/854/4 446/770/4 443/92/4
f 362/875/4 369/855/4 443/92/4 449/91/4
usemtl Material.002
f 797/31/4 796/32/4 48/33/4 242/34/4
f 807/35/2 808/36/2 40/37/2 244/38/2
f 445/57/4 442/58/4 95/59/4 262/60/4
f 448/61/6 83/62/6 95/63/6 442/64/6
f 397/69/2 389/70/2 105/71/2 270/72/2
f 400/407/2 394/408/2 216/409/2 328/410/2
f 447/415/4 444/416/4 208/417/4 325/418/4
f 809/431/2 810/432/2 189/433/2 314/434/2
f 798/435/4 799/436/4 187/437/4 313/438/4
f 394/408/2 397/69/2 270/72/2 216/409/2
f 444/416/4 445/57/4 262/60/4 208/417/4
f 810/432/2 807/35/2 244/38/2 189/433/2
f 799/436/4 797/31/4 242/34/4 187/437/4
f 793/774/4 798/775/4 313/776/4 282/777/4
f 791/778/7 419/779/7 781/780/7 793/774/7
f 803/781/8 433/782/8 771/783/8 805/784/8
f 805/784/2 809/785/2 314/786/2 284/787/2
f 447/788/4 325/789/4 295/790/4
f 446/791/2 447/788/2 295/790/2
f 399/792/4 400/793/4 299/794/4
f 400/793/2 328/795/2 299/794/2
f 794/796/4 782/797/4 426/798/4 792/799/4
f 426/798/2 359/800/2 355/801/2 792/799/2
f 412/802/4 356/803/4 353/804/4
f 411/805/2 412/802/2 353/804/2
f 409/814/4 410/815/4 350/816/4 346/817/4
f 423/818/2 424/819/2 349/820/2 344/821/2
f 412/822/4 409/814/4 346/817/4 356/823/4
f 426/824/2 423/818/2 344/821/2 359/825/2
f 424/819/2 420/834/2 337/835/2 349/820/2
f 410/815/4 404/836/4 334/837/4 350/816/4
f 389/838/6 337/839/6 334/840/6 404/841/6
f 440/842/4 386/843/4 382/844/4 804/845/4
f 806/846/2 772/847/2 440/842/2 804/845/2
f 453/848/4 454/849/4 380/850/4
f 454/849/2 384/851/2 380/850/2
f 451/860/2 452/861/2 379/862/2 374/863/2
f 437/864/4 438/865/4 377/866/4 372/867/4
f 454/868/2 451/860/2 374/863/2 384/869/2
f 440/870/4 437/864/4 372/867/4 386/871/4
f 427/876/6 361/877/6 367/878/6 435/879/6
f 438/865/4 435/880/4 367/881/4 377/866/4
f 452/861/2 448/882/2 361/883/2 379/862/2
f 105/888/6 389/838/6 404/841/6 104/889/6
f 275/890/4 104/891/4 404/836/4 410/815/4
f 330/892/4 223/893/4 409/814/4 412/822/4
f 223/893/4 275/890/4 410/815/4 409/814/4
f 300/894/4 330/895/4 411/805/4
f 330/895/2 412/802/2 411/805/2
f 359/800/4 400/793/4 399/792/4
f 355/801/2 359/800/2 399/792/2
f 344/821/2 349/820/2 397/69/2 394/408/2
f 359/825/2 344/821/2 394/408/2 400/407/2
f 349/820/2 337/835/2 389/70/2 397/69/2
f 768/896/2 763/897/2 420/834/2 424/819/2
f 769/898/2 770/899/2 423/818/2 426/824/2
f 770/899/2 768/896/2 424/819/2 423/818/2
f 789/900/9 769/901/9 426/798/9 782/797/9
f 284/787/2 314/786/2 425/902/2
f 353/804/4 356/803/4 418/903/4
f 356/803/2 419/779/2 791/778/2 418/903/2
f 346/817/4 350/816/4 417/904/4 416/905/4
f 356/823/4 346/817/4 416/905/4 419/906/4
f 350/816/4 334/837/4 414/907/4 417/904/4
f 337/839/6 420/908/6 414/909/6 334/840/6
f 759/910/4 760/911/4 435/880/4 438/865/4
f 756/912/6 427/876/6 435/879/6 760/913/6
f 761/914/4 762/915/4 437/864/4 440/870/4
f 762/915/4 759/910/4 438/865/4 437/864/4
f 282/777/4 313/776/4 439/916/4
f 779/917/10 761/918/10 440/842/10 772/847/10
f 384/851/4 433/782/4 803/781/4 432/919/4
f 380/850/2 384/851/2 432/919/2
f 374/863/2 379/862/2 431/920/2 430/921/2
f 384/869/2 374/863/2 430/921/2 433/922/2
f 379/862/2 361/883/2 427/923/2 431/920/2
f 266/924/2 83/925/2 448/882/2 452/861/2
f 327/926/2 213/927/2 451/860/2 454/868/2
f 213/927/2 266/924/2 452/861/2 451/860/2
f 327/928/4 454/849/4 453/848/4
f 297/929/2 327/928/2 453/848/2
f 382/844/4 386/843/4 446/791/4
f 386/843/2 447/788/2 446/791/2
f 372/867/4 377/866/4 445/57/4 444/416/4
f 386/871/4 372/867/4 444/416/4 447/415/4
f 361/877/6 448/61/6 442/64/6 367/878/6
f 377/866/4 367/881/4 442/58/4 445/57/4
f 780/1149/4 777/1150/4 759/910/4 762/915/4
f 779/1151/4 780/1149/4 762/915/4 761/914/4
f 774/1152/6 756/912/6 760/913/6 778/1153/6
f 777/1150/4 778/1154/4 760/911/4 759/910/4
f 430/921/2 431/920/2 755/1155/2 758/1156/2
f 433/922/2 430/921/2 758/1156/2 757/1157/2
f 431/920/2 427/923/2 756/1158/2 755/1155/2
f 790/1159/2 788/1160/2 768/896/2 770/899/2
f 789/1161/2 790/1159/2 770/899/2 769/898/2
f 788/1160/2 783/1162/2 763/897/2 768/896/2
f 416/905/4 417/904/4 765/1163/4 767/1164/4
f 419/906/4 416/905/4 767/1164/4 766/1165/4
f 417/904/4 414/907/4 764/1166/4 765/1163/4
f 420/908/6 763/1167/6 764/1168/6 414/909/6
f 811/1169/4 812/1170/4 778/1154/4 777/1150/4
f 808/1171/6 774/1152/6 778/1153/6 812/1172/6
f 813/1173/4 814/1174/4 780/1149/4 779/1151/4
f 814/1174/4 811/1169/4 777/1150/4 780/1149/4
f 813/1175/2 779/917/2 772/847/2 806/846/2
f 433/782/2 757/1176/2 775/1177/2 771/783/2
f 758/1156/2 755/1155/2 773/1178/2 776/1179/2
f 757/1157/2 758/1156/2 776/1179/2 775/1180/2
f 755/1155/2 756/1158/2 774/1181/2 773/1178/2
f 800/1182/2 795/1183/2 783/1162/2 788/1160/2
f 801/1184/2 802/1185/2 790/1159/2 789/1161/2
f 802/1185/2 800/1182/2 788/1160/2 790/1159/2
f 801/1186/4 789/900/4 782/797/4 794/796/4
f 419/779/4 766/1187/4 786/1188/4 781/780/4
f 767/1164/4 765/1163/4 785/1189/4 787/1190/4
f 766/1165/4 767/1164/4 787/1190/4 786/1191/4
f 765/1163/4 764/1166/4 784/1192/4 785/1189/4
f 763/1167/6 783/1193/6 784/1194/6 764/1168/6
f 314/786/4 801/1186/4 794/796/4 425/902/4
f 189/433/2 244/38/2 800/1195/2 802/1196/2
f 314/434/2 189/433/2 802/1196/2 801/1197/2
f 244/38/2 40/37/2 795/1198/2 800/1195/2
f 425/902/4 794/796/4 792/799/4 355/801/4
f 418/903/209 791/778/209 793/774/209 282/777/209
f 781/780/4 786/1188/4 798/775/4 793/774/4
f 787/1190/4 785/1189/4 797/1199/4 799/1200/4
f 786/1191/4 787/1190/4 799/1200/4 798/1201/4
f 785/1189/4 784/1192/4 796/1202/4 797/1199/4
f 783/1193/6 795/1203/6 796/1204/6 784/1194/6
f 313/776/2 813/1175/2 806/846/2 439/916/2
f 187/437/4 242/34/4 811/1205/4 814/1206/4
f 313/438/4 187/437/4 814/1206/4 813/1207/4
f 242/34/4 48/33/4 812/1210/4 811/1205/4
f 439/916/2 806/846/2 804/845/2 382/844/2
f 771/783/2 775/1177/2 809/785/2 805/784/2
f 432/919/210 803/781/210 805/784/210 284/787/210
f 776/1179/2 773/1178/2 807/1211/2 810/1212/2
f 775/1180/2 776/1179/2 810/1212/2 809/1213/2
f 773/1178/2 774/1181/2 808/1214/2 807/1211/2
usemtl Material.003
f 517/361/1 518/362/1 498/363/1 499/364/1 503/365/1 527/366/1 526/367/1 504/368/1 505/369/1 506/370/1 501/371/1 502/372/1 500/373/1 511/374/1 496/375/1 497/376/1 510/377/1 509/378/1 508/379/1 507/380/1 494/381/1 488/382/1 485/346/1 519/383/1 520/384/1 521/385/1 522/386/1 523/387/1 524/388/1 525/389/1 487/390/1 489/391/1 490/392/1 491/393/1 492/394/1 493/395/1 495/396/1 484/397/1 512/398/1 513/399/1 514/400/1 515/401/1 516/402/1
f 553/519/1 550/520/1 552/521/1 551/522/1 593/523/1 594/524/1 596/525/1 591/526/1 598/527/1 588/528/1 590/529/1 586/530/1 603/531/1 580/532/1 582/533/1 585/534/1 576/535/1 602/536/1 601/537/1 560/538/1 571/539/1 572/540/1 573/541/1 574/542/1 545/543/1 546/544/1 547/545/1 549/546/1 548/547/1
f 570/548/1 559/549/1 560/538/1 601/537/1 600/550/1 577/551/1 575/552/1 584/553/1 578/554/1 581/555/1 579/556/1 599/557/1 589/558/1 587/559/1 597/560/1 595/561/1 592/562/1 594/524/1 593/523/1 503/365/1 499/364/1 583/563/1 604/564/1 561/565/1 562/566/1 563/567/1 564/568/1 565/569/1 566/570/1 567/571/1 568/572/1 569/573/1
f 24/930/3 20/931/3 16/932/3
f 24/930/3 16/932/3 11/933/3
f 11/933/3 8/934/3 1/935/3
f 11/933/3 1/935/3 46/936/3
f 24/930/3 11/937/3 46/936/3
f 28/938/3 24/939/3 46/936/3
f 28/938/3 46/936/3 36/940/3
f 36/940/3 46/941/3 43/942/3
f 28/938/3 36/940/3 30/943/3
f 38/944/3 36/940/3 43/942/3
f 58/933/3 56/933/3 91/942/3
f 91/942/3 56/945/3 50/935/3
f 91/942/3 50/936/3 94/936/3
f 58/933/3 91/944/3 85/944/3
f 58/933/3 85/938/3 75/938/3
f 75/938/3 85/938/3 81/940/3
f 75/938/3 81/943/3 78/943/3
f 58/933/3 75/930/3 71/930/3
f 58/933/3 71/946/3 67/931/3
f 58/933/3 67/932/3 61/932/3
f 108/947/3 102/947/3 99/935/3
f 108/947/3 99/936/3 125/936/3
f 114/948/3 110/948/3 121/949/3
f 114/948/3 121/950/3 117/950/3
f 138/951/3 134/952/3 128/935/3
f 138/951/3 128/935/3 163/953/3
f 163/953/3 128/954/3 158/955/3
f 138/951/3 163/953/3 171/936/3
f 166/956/3 163/953/3 158/955/3
f 138/951/3 171/936/3 144/957/3
f 144/957/3 171/958/3 166/956/3
f 144/957/3 166/959/3 150/960/3
f 150/960/3 166/956/3 158/955/3
f 138/951/3 144/957/3 142/961/3
f 154/962/3 150/960/3 158/955/3
f 179/963/3 173/963/3 357/964/3
f 357/964/3 173/935/3 354/965/3
f 357/964/3 354/966/3 352/967/3
f 357/964/3 352/968/3 351/969/3
f 357/964/3 351/970/3 348/971/3
f 357/964/3 348/972/3 347/973/3
f 357/964/3 347/974/3 345/975/3
f 357/964/3 345/976/3 343/977/3
f 357/964/3 343/978/3 341/979/3
f 357/964/3 341/979/3 358/980/3
f 358/980/3 341/981/3 339/982/3
f 179/963/3 357/936/3 408/936/3
f 360/983/3 358/980/3 339/982/3
f 363/984/3 360/983/3 339/982/3
f 365/985/3 363/984/3 339/982/3
f 365/985/3 339/986/3 336/987/3
f 366/988/3 365/985/3 336/987/3
f 368/989/3 366/988/3 336/987/3
f 370/990/3 368/989/3 336/987/3
f 370/990/3 336/991/3 335/992/3
f 373/993/3 370/990/3 335/992/3
f 375/994/3 373/993/3 335/992/3
f 376/995/3 375/994/3 335/992/3
f 376/995/3 335/996/3 332/997/3
f 378/998/3 376/995/3 332/997/3
f 381/999/3 378/998/3 332/997/3
f 381/999/3 332/1000/3 331/1001/3
f 383/1002/3 381/999/3 331/1001/3
f 385/1003/3 383/1004/3 331/1001/3
f 385/1003/3 331/1001/3 329/1005/3
f 387/1006/3 385/1007/3 329/1005/3
f 387/1006/3 329/1005/3 326/1008/3
f 388/1009/3 387/1010/3 326/1008/3
f 391/1011/3 388/1012/3 326/1008/3
f 391/1011/3 326/1008/3 324/1013/3
f 392/1014/3 391/1015/3 324/1013/3
f 392/1014/3 324/1013/3 322/1016/3
f 395/1017/3 392/1018/3 322/1016/3
f 395/1017/3 322/1016/3 320/1019/3
f 396/1020/3 395/1021/3 320/1019/3
f 398/1022/3 396/1023/3 320/1019/3
f 398/1022/3 320/1019/3 318/1024/3
f 401/1025/3 398/1026/3 318/1024/3
f 403/1027/3 401/1028/3 318/1024/3
f 403/1027/3 318/1024/3 316/1029/3
f 405/1030/3 403/1031/3 316/1029/3
f 406/1032/3 405/1033/3 316/1029/3
f 179/963/3 408/1034/3 184/1034/3
f 184/1034/3 408/1034/3 406/1032/3
f 184/1034/3 406/1035/3 316/1029/3
f 184/1034/3 316/1029/3 315/1036/3
f 184/1034/3 315/1036/3 312/1037/3
f 184/1034/3 312/1037/3 310/1038/3
f 184/1034/3 310/1038/3 308/1039/3
f 184/1034/3 308/1039/3 306/1040/3
f 184/1034/3 306/1041/3 305/1042/3
f 184/1034/3 305/1043/3 303/1044/3
f 184/1034/3 303/1044/3 190/1045/3
f 190/1045/3 303/1044/3 195/1046/3
f 195/1046/3 303/1047/3 301/1048/3
f 179/963/3 184/1049/3 180/1049/3
f 196/1050/3 195/1046/3 301/1048/3
f 203/1051/3 196/1050/3 301/1048/3
f 206/1052/3 203/1051/3 301/1048/3
f 206/1052/3 301/1053/3 298/1054/3
f 211/1055/3 206/1052/3 298/1054/3
f 214/1056/3 211/1055/3 298/1054/3
f 214/1056/3 298/1057/3 296/1058/3
f 218/1059/3 214/1056/3 296/1058/3
f 218/1059/3 296/1060/3 294/1061/3
f 220/1062/3 218/1059/3 294/1061/3
f 220/1062/3 294/1063/3 293/1064/3
f 224/1065/3 220/1062/3 293/1064/3
f 224/1065/3 293/1066/3 290/1067/3
f 230/1068/3 224/1065/3 290/1067/3
f 230/1068/3 290/1069/3 288/1070/3
f 234/1071/3 230/1068/3 288/1070/3
f 234/1071/3 288/1072/3 286/1073/3
f 234/1071/3 286/1074/3 285/1075/3
f 236/1076/3 234/1071/3 285/1075/3
f 236/1076/3 285/1077/3 283/1078/3
f 241/1079/3 236/1076/3 283/1078/3
f 241/1079/3 283/1080/3 281/1081/3
f 241/1079/3 281/1082/3 279/1083/3
f 241/1079/3 279/1084/3 277/1085/3
f 241/1079/3 277/1086/3 274/1087/3
f 241/1079/3 274/1088/3 272/1089/3
f 241/1079/3 272/1090/3 269/1091/3
f 241/1079/3 269/1092/3 264/1093/3
f 241/1079/3 264/1094/3 260/1095/3
f 241/1079/3 260/1096/3 257/1097/3
f 241/1079/3 257/1098/3 252/1099/3
f 241/1079/3 252/1100/3 247/1101/3
f 241/1079/3 247/1102/3 138/1103/3
f 203/1051/11 206/1052/11 500/1052/11 502/1051/11
f 540/1104/4 110/1104/4 114/948/4 468/948/4 486/1105/4
f 392/1014/12 395/1017/12 581/1017/12 578/1014/12
f 408/936/2 357/964/2 594/964/2 592/936/2
f 260/1095/13 264/1093/13 523/1106/13 522/1095/13
f 358/980/14 360/983/14 591/983/14 596/980/14
f 20/931/15 24/930/15 554/1107/15 532/931/15
f 298/1054/16 301/1048/16 517/1048/16 516/1054/16
f 121/949/6 125/949/6 538/949/6 537/949/6
f 320/1019/17 322/1016/17 567/1016/17 566/1019/17
f 257/1097/18 260/1095/18 522/1095/18 521/1097/18
f 360/983/19 363/984/19 598/984/19 591/983/19
f 206/1052/20 211/1055/20 511/1055/20 500/1052/20
f 114/948/6 117/948/6 467/948/6 468/948/6
f 395/1017/21 396/1020/21 579/1020/21 581/1017/21
f 16/932/5 20/932/5 532/932/5 530/932/5
f 467/950/2 117/950/2 121/949/2 537/949/2 470/1108/2
f 252/1099/22 257/1097/22 521/1097/22 520/1099/22
f 363/984/23 365/985/23 588/985/23 598/984/23
f 211/1055/24 214/1056/24 496/1056/24 511/1055/24
f 544/1109/25 134/1109/25 138/951/25 485/951/25 482/1110/25
f 396/1020/26 398/1022/26 599/1022/26 579/1020/26
f 11/933/27 16/932/27 530/932/27 533/933/27
f 247/1101/28 252/1099/28 520/1099/28 519/1101/28
f 8/945/29 11/933/29 533/933/29 529/945/29
f 128/935/5 134/935/5 544/935/5 541/935/5
f 241/1079/6 138/1079/6 485/1079/6 488/1079/6
f 336/987/30 339/982/30 574/1111/30 573/987/30
f 296/1058/31 298/1054/31 516/1054/31 515/1058/31
f 318/1024/32 320/1019/32 566/1019/32 565/1024/32
f 138/1103/33 247/1101/33 519/1101/33 485/1103/33
f 1/935/5 8/935/5 529/935/5 528/935/5
f 365/985/34 366/988/34 590/1112/34 588/985/34
f 214/1056/35 218/1059/35 497/1113/35 496/1056/35
f 398/1022/36 401/1025/36 589/1025/36 599/1022/36
f 46/936/37 1/935/37 528/935/37 555/936/37
f 366/988/38 368/989/38 586/989/38 590/1112/38
f 473/955/39 158/955/39 128/935/39 541/935/39 475/1114/39
f 401/1025/40 403/1027/40 587/1027/40 589/1025/40
f 294/1061/41 296/1058/41 515/1058/41 514/1061/41
f 554/1107/42 24/930/42 28/938/42 460/938/42 458/1115/42
f 368/989/43 370/990/43 603/990/43 586/989/43
f 218/1059/44 220/1062/44 510/1062/44 497/1113/44
f 481/936/45 171/936/45 163/953/45 558/953/45 479/1116/45
f 558/953/46 163/953/46 166/956/46 478/956/46 477/1117/46
f 316/1029/47 318/1024/47 565/1024/47 564/1029/47
f 403/1027/48 405/1030/48 597/1030/48 587/1027/48
f 335/992/49 336/987/49 573/987/49 572/992/49
f 293/1064/50 294/1061/50 514/1061/50 513/1064/50
f 370/990/51 373/993/51 580/993/51 603/990/51
f 220/1062/52 224/1065/52 509/1065/52 510/1062/52
f 405/1030/53 406/1032/53 595/1118/53 597/1030/53
f 455/942/54 43/942/54 46/936/54 555/936/54 457/1119/54
f 28/938/6 30/938/6 463/938/6 460/938/6
f 373/993/55 375/994/55 582/994/55 580/993/55
f 166/956/5 171/956/5 481/956/5 478/956/5
f 30/943/56 36/940/56 459/940/56 463/943/56
f 290/1067/57 293/1064/57 513/1064/57 512/1067/57
f 144/957/6 150/957/6 474/957/6 480/957/6
f 36/940/58 38/944/58 456/944/58 459/940/58
f 375/994/59 376/995/59 585/995/59 582/994/59
f 224/1065/60 230/1068/60 508/1068/60 509/1065/60
f 38/944/6 43/944/6 455/944/6 456/944/6
f 406/1032/5 408/1032/5 592/1032/5 595/1118/5
f 535/945/4 56/945/4 58/933/4 469/933/4 471/1120/4
f 138/951/6 142/951/6 483/951/6 485/951/6
f 332/997/61 335/992/61 572/992/61 571/997/61
f 288/1070/62 290/1067/62 512/1067/62 484/1070/62
f 142/961/63 144/957/63 480/957/63 483/961/63
f 376/995/64 378/998/64 576/998/64 585/995/64
f 230/1068/65 234/1071/65 507/1121/65 508/1068/65
f 150/960/66 154/962/66 476/962/66 474/960/66
f 315/1036/67 316/1029/67 564/1029/67 563/1036/67
f 154/962/6 158/962/6 473/962/6 476/962/6
f 50/935/5 56/935/5 535/935/5 539/935/5
f 378/998/68 381/999/68 602/999/68 576/998/68
f 551/935/4 173/935/4 179/963/4 527/963/4 503/1122/4 593/1123/4
f 312/1037/69 315/1036/69 563/1036/69 562/1037/69
f 91/942/6 94/942/6 531/942/6 534/942/6
f 286/1073/70 288/1070/70 484/1070/70 495/1073/70
f 94/936/2 50/935/2 539/935/2 531/936/2
f 310/1038/71 312/1037/71 562/1037/71 561/1038/71
f 559/1001/72 331/1001/72 332/997/72 571/997/72 560/1124/72
f 285/1075/73 286/1073/73 495/1073/73 493/1075/73
f 85/944/2 91/942/2 534/942/2 557/944/2
f 381/999/74 383/1002/74 601/1002/74 602/999/74
f 234/1071/75 236/1076/75 494/1076/75 507/1121/75
f 354/965/5 173/965/5 551/965/5 552/965/5
f 308/1039/76 310/1038/76 561/1038/76 604/1039/76
f 383/1002/77 385/1003/77 600/1003/77 601/1002/77
f 352/967/78 354/965/78 552/965/78 550/1125/78
f 306/1040/79 308/1039/79 604/1039/79 583/1040/79
f 283/1078/80 285/1075/80 493/1075/80 492/1078/80
f 81/940/5 85/940/5 557/940/5 556/940/5
f 236/1076/81 241/1079/81 488/1079/81 494/1076/81
f 351/969/82 352/967/82 550/1125/82 553/969/82
f 498/1042/83 305/1042/83 306/1040/83 583/1040/83 499/1126/83
f 75/938/6 78/938/6 465/938/6 472/938/6
f 329/1005/84 331/1001/84 559/1001/84 570/1005/84
f 465/943/2 78/943/2 81/940/2 556/940/2 466/1127/2
f 385/1003/85 387/1006/85 577/1006/85 600/1003/85
f 348/971/86 351/969/86 553/969/86 548/971/86
f 303/1044/87 305/1042/87 498/1042/87 518/1044/87
f 281/1081/88 283/1078/88 492/1078/88 491/1081/88
f 184/1034/6 190/1034/6 505/1034/6 504/1034/6
f 71/930/2 75/938/2 472/938/2 464/930/2
f 347/973/89 348/971/89 548/971/89 549/973/89
f 326/1008/90 329/1005/90 570/1005/90 569/1128/90
f 279/1083/91 281/1081/91 491/1081/91 490/1083/91
f 190/1045/92 195/1046/92 506/1046/92 505/1045/92
f 67/931/5 71/931/5 464/931/5 462/931/5
f 387/1006/93 388/1009/93 575/1009/93 577/1006/93
f 345/975/94 347/973/94 549/973/94 547/975/94
f 58/933/6 61/933/6 461/933/6 469/933/6
f 277/1085/95 279/1083/95 490/1083/95 489/1085/95
f 61/932/2 67/931/2 462/931/2 461/932/2
f 388/1009/96 391/1011/96 584/1011/96 575/1009/96
f 343/977/97 345/975/97 547/975/97 546/977/97
f 301/1048/98 303/1044/98 518/1044/98 517/1048/98
f 102/1129/4 108/947/4 543/947/4 542/1129/4
f 274/1087/99 277/1085/99 489/1085/99 487/1087/99
f 179/963/6 180/963/6 526/1130/6 527/963/6
f 341/979/100 343/977/100 546/977/100 545/979/100
f 180/1049/2 184/1034/2 504/1034/2 526/1049/2
f 99/935/5 102/935/5 542/935/5 536/935/5
f 324/1013/101 326/1008/101 569/1128/101 568/1013/101
f 272/1089/102 274/1087/102 487/1087/102 525/1089/102
f 357/964/6 358/964/6 596/964/6 594/964/6
f 195/1046/103 196/1050/103 501/1050/103 506/1046/103
f 391/1011/104 392/1014/104 578/1014/104 584/1011/104
f 125/936/2 99/935/2 536/935/2 538/936/2
f 269/1091/105 272/1089/105 525/1089/105 524/1091/105
f 196/1050/106 203/1051/106 502/1051/106 501/1050/106
f 108/947/6 110/947/6 540/947/6 543/947/6
f 339/982/107 341/979/107 545/979/107 574/1111/107
f 322/1016/108 324/1013/108 568/1013/108 567/1016/108
f 264/1093/109 269/1091/109 524/1091/109 523/1106/109
f 12/930/1 9/931/1 7/932/1
f 12/930/1 7/932/1 6/933/1
f 6/933/1 3/934/1 2/935/1
f 6/933/1 2/935/1 23/936/1
f 12/930/1 6/937/1 23/936/1
f 14/938/1 12/939/1 23/936/1
f 14/938/1 23/936/1 18/940/1
f 18/940/1 23/941/1 22/942/1
f 14/938/1 18/940/1 15/943/1
f 19/944/1 18/940/1 22/942/1
f 29/933/1 27/933/1 45/942/1
f 45/942/1 27/945/1 26/935/1
f 45/942/1 26/936/1 47/936/1
f 29/933/1 45/944/1 44/944/1
f 29/933/1 44/938/1 37/938/1
f 37/938/1 44/938/1 41/940/1
f 37/938/1 41/943/1 39/943/1
f 29/933/1 37/930/1 35/930/1
f 29/933/1 35/946/1 34/931/1
f 29/933/1 34/932/1 32/932/1
f 53/947/1 52/947/1 49/935/1
f 53/947/1 49/936/1 63/936/1
f 57/948/1 55/948/1 62/949/1
f 57/948/1 62/950/1 59/950/1
f 70/951/1 68/952/1 66/935/1
f 70/951/1 66/935/1 82/953/1
f 82/953/1 66/954/1 80/955/1
f 70/951/1 82/953/1 86/936/1
f 84/956/1 82/953/1 80/955/1
f 70/951/1 86/936/1 74/957/1
f 74/957/1 86/958/1 84/956/1
f 74/957/1 84/959/1 76/960/1
f 76/960/1 84/956/1 80/955/1
f 70/951/1 74/957/1 72/961/1
f 77/962/1 76/960/1 80/955/1
f 90/963/1 88/963/1 221/964/1
f 221/964/1 88/935/1 219/965/1
f 221/964/1 219/966/1 217/967/1
f 221/964/1 217/968/1 215/969/1
f 221/964/1 215/970/1 212/971/1
f 221/964/1 212/972/1 210/973/1
f 221/964/1 210/974/1 209/975/1
f 221/964/1 209/976/1 207/977/1
f 221/964/1 207/978/1 204/979/1
f 221/964/1 204/979/1 222/980/1
f 222/980/1 204/981/1 202/982/1
f 90/963/1 221/936/1 273/936/1
f 225/983/1 222/980/1 202/982/1
f 226/984/1 225/983/1 202/982/1
f 229/985/1 226/984/1 202/982/1
f 229/985/1 202/986/1 201/987/1
f 231/988/1 229/985/1 201/987/1
f 233/989/1 231/988/1 201/987/1
f 235/990/1 233/989/1 201/987/1
f 235/990/1 201/991/1 199/992/1
f 237/993/1 235/990/1 199/992/1
f 239/994/1 237/993/1 199/992/1
f 240/995/1 239/994/1 199/992/1
f 240/995/1 199/996/1 197/997/1
f 243/998/1 240/995/1 197/997/1
f 245/999/1 243/998/1 197/997/1
f 245/999/1 197/1000/1 194/1001/1
f 246/1002/1 245/999/1 194/1001/1
f 249/1003/1 246/1004/1 194/1001/1
f 249/1003/1 194/1001/1 193/1005/1
f 251/1006/1 249/1007/1 193/1005/1
f 251/1006/1 193/1005/1 191/1008/1
f 253/1009/1 251/1010/1 191/1008/1
f 255/1011/1 253/1012/1 191/1008/1
f 255/1011/1 191/1008/1 188/1013/1
f 256/1014/1 255/1015/1 188/1013/1
f 256/1014/1 188/1013/1 186/1016/1
f 259/1017/1 256/1018/1 186/1016/1
f 259/1017/1 186/1016/1 185/1019/1
f 261/1020/1 259/1021/1 185/1019/1
f 263/1022/1 261/1023/1 185/1019/1
f 263/1022/1 185/1019/1 183/1024/1
f 265/1025/1 263/1026/1 183/1024/1
f 267/1027/1 265/1028/1 183/1024/1
f 267/1027/1 183/1024/1 181/1029/1
f 268/1030/1 267/1031/1 181/1029/1
f 271/1032/1 268/1033/1 181/1029/1
f 90/963/1 273/1034/1 93/1034/1
f 93/1034/1 273/1034/1 271/1032/1
f 93/1034/1 271/1035/1 181/1029/1
f 93/1034/1 181/1029/1 178/1036/1
f 93/1034/1 178/1036/1 176/1037/1
f 93/1034/1 176/1037/1 174/1038/1
f 93/1034/1 174/1038/1 172/1039/1
f 93/1034/1 172/1039/1 170/1040/1
f 93/1034/1 170/1041/1 169/1042/1
f 93/1034/1 169/1043/1 167/1044/1
f 93/1034/1 167/1044/1 96/1045/1
f 96/1045/1 167/1044/1 98/1046/1
f 98/1046/1 167/1047/1 164/1048/1
f 90/963/1 93/1049/1 92/1049/1
f 100/1050/1 98/1046/1 164/1048/1
f 101/1051/1 100/1050/1 164/1048/1
f 103/1052/1 101/1051/1 164/1048/1
f 103/1052/1 164/1053/1 162/1054/1
f 106/1055/1 103/1052/1 162/1054/1
f 107/1056/1 106/1055/1 162/1054/1
f 107/1056/1 162/1057/1 161/1058/1
f 109/1059/1 107/1056/1 161/1058/1
f 109/1059/1 161/1060/1 159/1061/1
f 111/1062/1 109/1059/1 159/1061/1
f 111/1062/1 159/1063/1 157/1064/1
f 113/1065/1 111/1062/1 157/1064/1
f 113/1065/1 157/1066/1 155/1067/1
f 116/1068/1 113/1065/1 155/1067/1
f 116/1068/1 155/1069/1 153/1070/1
f 118/1071/1 116/1068/1 153/1070/1
f 118/1071/1 153/1072/1 151/1073/1
f 118/1071/1 151/1074/1 148/1075/1
f 120/1076/1 118/1071/1 148/1075/1
f 120/1076/1 148/1077/1 146/1078/1
f 122/1079/1 120/1076/1 146/1078/1
f 122/1079/1 146/1080/1 145/1081/1
f 122/1079/1 145/1082/1 143/1083/1
f 122/1079/1 143/1084/1 140/1085/1
f 122/1079/1 140/1086/1 139/1087/1
f 122/1079/1 139/1088/1 136/1089/1
f 122/1079/1 136/1090/1 135/1091/1
f 122/1079/1 135/1092/1 132/1093/1
f 122/1079/1 132/1094/1 131/1095/1
f 122/1079/1 131/1096/1 129/1097/1
f 122/1079/1 129/1098/1 127/1099/1
f 122/1079/1 127/1100/1 124/1101/1
f 122/1079/1 124/1102/1 70/1103/1
f 633/1061/110 159/1061/110 161/1058/110 634/1058/110
f 736/930/111 12/930/111 14/938/111 661/938/111 667/1131/111
f 711/1132/112 233/989/112 235/990/112 731/990/112
f 620/1113/113 109/1059/113 111/1062/113 619/1062/113
f 86/936/114 82/953/114 732/953/114 640/1133/114 639/936/114
f 732/953/115 82/953/115 84/956/115 647/956/115 648/1117/115
f 742/1029/116 181/1029/116 183/1024/116 743/1024/116
f 709/1027/117 267/1027/117 268/1030/117 715/1030/117
f 751/992/118 199/992/118 201/987/118 752/987/118
f 632/1064/119 157/1064/119 159/1061/119 633/1061/119
f 731/990/120 235/990/120 237/993/120 720/993/120
f 619/1062/121 111/1062/121 113/1065/121 618/1065/121
f 715/1030/122 268/1030/122 271/1032/122 705/1118/122
f 665/942/123 22/942/123 23/936/123 737/936/123 664/1134/123
f 661/938/6 14/938/6 15/938/6 662/938/6
f 720/993/124 237/993/124 239/994/124 718/994/124
f 647/956/5 84/956/5 86/956/5 639/956/5
f 662/943/125 15/943/125 18/940/125 663/940/125
f 631/1067/126 155/1067/126 157/1064/126 632/1064/126
f 641/1135/6 74/957/6 76/957/6 645/1135/6
f 663/940/127 18/940/127 19/944/127 666/944/127
f 718/994/128 239/994/128 240/995/128 725/1136/128
f 618/1065/129 113/1065/129 116/1068/129 617/1068/129
f 666/944/6 19/944/6 22/944/6 665/944/6
f 705/1118/5 271/1032/5 273/1032/5 704/1032/5
f 696/945/2 27/945/2 29/933/2 652/933/2 651/1120/2
f 638/1137/6 70/951/6 72/951/6 649/1137/6
f 750/997/130 197/997/130 199/992/130 751/992/130
f 630/1070/131 153/1070/131 155/1067/131 631/1067/131
f 649/961/132 72/961/132 74/957/132 641/1135/132
f 725/1136/133 240/995/133 243/998/133 721/998/133
f 617/1068/134 116/1068/134 118/1071/134 616/1071/134
f 645/960/135 76/960/135 77/962/135 644/962/135
f 741/1036/136 178/1036/136 181/1029/136 742/1029/136
f 644/962/6 77/962/6 80/962/6 643/962/6
f 703/935/5 26/935/5 27/935/5 696/935/5
f 721/998/137 243/998/137 245/999/137 730/999/137
f 678/935/2 88/935/2 90/963/2 676/963/2 605/1122/2
f 740/1037/138 176/1037/138 178/1036/138 741/1036/138
f 695/942/6 45/942/6 47/942/6 697/942/6
f 628/1073/139 151/1073/139 153/1070/139 630/1070/139
f 697/936/4 47/936/4 26/935/4 703/935/4
f 739/1038/140 174/1038/140 176/1037/140 740/1037/140
f 733/1138/141 734/1001/141 194/1001/141 197/997/141 750/997/141
f 626/1075/142 148/1075/142 151/1073/142 628/1073/142
f 735/944/4 44/944/4 45/942/4 695/942/4
f 730/999/143 245/999/143 246/1002/143 729/1139/143
f 616/1071/144 118/1071/144 120/1076/144 627/1076/144
f 679/1140/5 219/965/5 88/965/5 678/1140/5
f 754/1039/145 172/1039/145 174/1038/145 739/1038/145
f 729/1139/146 246/1002/146 249/1003/146 728/1003/146
f 683/967/147 217/967/147 219/965/147 679/1140/147
f 723/1040/148 170/1040/148 172/1039/148 754/1039/148
f 625/1078/149 146/1078/149 148/1075/149 626/1075/149
f 738/940/5 41/940/5 44/940/5 735/940/5
f 627/1076/150 120/1076/150 122/1079/150 629/1079/150
f 680/969/151 215/969/151 217/967/151 683/967/151
f 613/1042/152 169/1042/152 170/1040/152 723/1040/152 614/1141/152
f 659/938/6 37/938/6 39/938/6 656/938/6
f 749/1142/153 748/1005/153 193/1005/153 194/1001/153 734/1001/153
f 656/943/4 39/943/4 41/940/4 738/940/4 657/1127/4
f 728/1003/154 249/1003/154 251/1006/154 727/1006/154
f 682/971/155 212/971/155 215/969/155 680/969/155
f 637/1044/156 167/1044/156 169/1042/156 613/1042/156
f 624/1081/157 145/1081/157 146/1078/157 625/1078/157
f 606/1034/6 93/1034/6 96/1034/6 607/1034/6
f 658/930/4 35/930/4 37/938/4 659/938/4
f 681/973/158 210/973/158 212/971/158 682/971/158
f 747/1008/159 191/1008/159 193/1005/159 748/1005/159
f 623/1083/160 143/1083/160 145/1081/160 624/1081/160
f 607/1045/161 96/1045/161 98/1046/161 608/1046/161
f 668/931/5 34/931/5 35/931/5 658/931/5
f 727/1006/162 251/1006/162 253/1009/162 722/1009/162
f 691/975/163 209/975/163 210/973/163 681/973/163
f 652/933/6 29/933/6 32/933/6 660/933/6
f 622/1085/164 140/1085/164 143/1083/164 623/1083/164
f 660/932/4 32/932/4 34/931/4 668/931/4
f 722/1009/165 253/1009/165 255/1011/165 724/1011/165
f 684/977/166 207/977/166 209/975/166 691/975/166
f 636/1048/167 164/1048/167 167/1044/167 637/1044/167
f 690/1129/2 52/1129/2 53/947/2 687/947/2
f 621/1087/168 139/1087/168 140/1085/168 622/1085/168
f 676/963/6 90/963/6 92/963/6 677/1143/6
f 686/979/169 204/979/169 207/977/169 684/977/169
f 92/1049/4 93/1034/4 606/1034/4 677/1049/4
f 694/935/5 49/935/5 52/935/5 690/935/5
f 746/1013/170 188/1013/170 191/1008/170 747/1008/170
f 675/1089/171 136/1089/171 139/1087/171 621/1087/171
f 707/964/6 221/964/6 222/964/6 706/964/6
f 608/1046/172 98/1046/172 100/1050/172 611/1050/172
f 724/1011/173 255/1011/173 256/1014/173 717/1014/173
f 693/936/4 63/936/4 49/935/4 694/935/4
f 674/1091/174 135/1091/174 136/1089/174 675/1089/174
f 611/1050/175 100/1050/175 101/1051/175 610/1051/175
f 687/947/6 53/947/6 55/947/6 689/947/6
f 753/982/176 202/982/176 204/979/176 686/979/176
f 745/1016/177 186/1016/177 188/1013/177 746/1013/177
f 673/1093/178 132/1093/178 135/1091/178 674/1091/178
f 610/1051/179 101/1051/179 103/1052/179 609/1052/179
f 689/1104/2 55/1104/2 57/948/2 654/948/2 655/1105/2
f 717/1014/180 256/1014/180 259/1017/180 719/1144/180
f 704/936/4 273/936/4 221/964/4 707/964/4
f 672/1095/181 131/1095/181 132/1093/181 673/1093/181
f 706/980/182 222/980/182 225/983/182 708/983/182
f 698/931/183 9/931/183 12/930/183 736/930/183
f 635/1054/184 162/1054/184 164/1048/184 636/1048/184
f 692/949/6 62/949/6 63/949/6 693/949/6
f 744/1019/185 185/1019/185 186/1016/185 745/1016/185
f 671/1097/186 129/1097/186 131/1095/186 672/1095/186
f 708/983/187 225/983/187 226/984/187 710/984/187
f 609/1052/188 103/1052/188 106/1055/188 615/1055/188
f 654/948/6 57/948/6 59/948/6 653/948/6
f 719/1144/189 259/1017/189 261/1020/189 716/1145/189
f 700/932/5 7/932/5 9/932/5 698/932/5
f 653/950/4 59/950/4 62/949/4 692/949/4 650/1108/4
f 670/1099/190 127/1099/190 129/1097/190 671/1097/190
f 710/984/191 226/984/191 229/985/191 714/985/191
f 615/1055/192 106/1055/192 107/1056/192 612/1056/192
f 685/1109/193 68/1109/193 70/951/193 638/1137/193 642/1110/193
f 716/1145/194 261/1020/194 263/1022/194 726/1022/194
f 699/933/195 6/933/195 7/932/195 700/932/195
f 669/1146/196 124/1101/196 127/1099/196 670/1099/196
f 702/945/197 3/945/197 6/933/197 699/933/197
f 688/935/5 66/935/5 68/935/5 685/935/5
f 629/1079/6 122/1079/6 70/1079/6 638/1079/6
f 752/987/198 201/987/198 202/982/198 753/982/198
f 634/1058/199 161/1058/199 162/1054/199 635/1054/199
f 743/1024/200 183/1024/200 185/1019/200 744/1019/200
f 638/1103/201 70/1103/201 124/1101/201 669/1146/201
f 701/935/5 2/935/5 3/935/5 702/935/5
f 714/985/202 229/985/202 231/988/202 712/1112/202
f 612/1056/203 107/1056/203 109/1059/203 620/1113/203
f 726/1022/204 263/1022/204 265/1025/204 713/1147/204
f 23/936/205 2/935/205 701/935/205 737/936/205
f 712/1112/206 231/988/206 233/989/206 711/1132/206
f 643/955/207 80/955/207 66/935/207 688/935/207 646/1148/207
f 713/1147/208 265/1025/208 267/1027/208 709/1027/208
usemtl Material.004
f 795/23/6 40/24/6 48/25/6 796/26/6
f 40/24/6 808/1208/6 812/1209/6 48/25/6
